<svg xmlns="http://www.w3.org/2000/svg" viewBox="0 0 1018.67 304.92"><defs><style>.cls-1{fill:#6dcff6;}.cls-2{fill:#fff;}</style></defs><g id="Layer_73" data-name="Layer 73"><path d="M431.56,81.66q12.63,7.28,12.63,22,0,12.23-8.65,20t-21.28,7.83H373.48V35.39h37.9q12.35,0,20.8,7.62a25,25,0,0,1,8.44,19.43A23.44,23.44,0,0,1,431.56,81.66ZM411.38,53.1H392.43V74.24h18.95a9.84,9.84,0,0,0,7.34-3,10.35,10.35,0,0,0,2.95-7.55,10.5,10.5,0,0,0-2.88-7.55A9.8,9.8,0,0,0,411.38,53.1Zm2.88,60.69a10.67,10.67,0,0,0,8-3.23,11.17,11.17,0,0,0,3.16-8.17,11,11,0,0,0-3.16-8,10.67,10.67,0,0,0-8-3.23H392.43v22.66Z"></path><path d="M509,62.85h17.71V131.5H509v-8.1q-8,10-22.38,10-13.74,0-23.55-10.5t-9.82-25.75q0-15.24,9.82-25.74t23.55-10.51Q501,60.92,509,71Zm-32.68,48.26a18.27,18.27,0,0,0,13.59,5.42,18.52,18.52,0,0,0,13.67-5.42A18.88,18.88,0,0,0,509,97.17a18.87,18.87,0,0,0-5.42-13.93,18.52,18.52,0,0,0-13.67-5.43,18.28,18.28,0,0,0-13.59,5.43Q471,88.66,471,97.17T476.32,111.11Z"></path><path d="M575.46,133.42q-15.53,0-25.89-10.43T539.21,97.17q0-15.37,10.36-25.81t25.89-10.44a35.64,35.64,0,0,1,18.26,4.81,32,32,0,0,1,12.49,12.91L591,87.56a15.6,15.6,0,0,0-6.25-6.73,18.2,18.2,0,0,0-9.4-2.47,17.75,17.75,0,0,0-13.18,5.29,18.42,18.42,0,0,0-5.22,13.52,18.25,18.25,0,0,0,5.22,13.39,17.71,17.71,0,0,0,13.18,5.29,18.74,18.74,0,0,0,9.54-2.41,15.17,15.17,0,0,0,6.25-6.66l15.38,8.79a34.42,34.42,0,0,1-12.77,13A35.2,35.2,0,0,1,575.46,133.42Z"></path><path d="M654,60.92q11.26,0,18.61,7.56t7.34,20.87V131.5H662.23v-40q0-6.86-3.71-10.5a13.51,13.51,0,0,0-9.88-3.64q-6.87,0-11,4.26t-4.12,12.77V131.5H615.82V35.39h17.71V70.54Q640,60.92,654,60.92Z"></path><path d="M710,104.45q3.57,12.92,19.36,12.91,10.17,0,15.38-6.87L759,118.73q-10.15,14.7-29.93,14.69-17,0-27.32-10.3t-10.3-25.95q0-15.51,10.16-25.88t26.09-10.37q15.1,0,24.92,10.44t9.82,25.81a41.26,41.26,0,0,1-.69,7.28Zm-.27-13.73h35q-1.51-7-6.24-10.44a18,18,0,0,0-10.78-3.43,18.67,18.67,0,0,0-11.81,3.64A17.39,17.39,0,0,0,709.74,90.72Z"></path><path d="M774.82,131.5V31.27h17.71V131.5Z"></path><path d="M867.23,122.92a36.28,36.28,0,0,1-62.06-25.75,36.32,36.32,0,1,1,72.63,0A34.89,34.89,0,0,1,867.23,122.92Zm-39.07-12.15a17.86,17.86,0,0,0,13.25,5.35,18.08,18.08,0,0,0,13.32-5.35,18.42,18.42,0,0,0,5.36-13.6,18.42,18.42,0,0,0-5.36-13.59,18.08,18.08,0,0,0-13.32-5.35,17.86,17.86,0,0,0-13.25,5.35,18.55,18.55,0,0,0-5.28,13.59A18.56,18.56,0,0,0,828.16,110.77Z"></path><path d="M908,74.66a18.46,18.46,0,0,1,8.17-9.89,24.85,24.85,0,0,1,12.7-3.3V81.25a20.92,20.92,0,0,0-14.49,3.29Q908,88.8,908,98.68V131.5H890.29V62.85H908Z"></path><path d="M940,67l-2.34-31.58h16.75L952.08,67Z"></path><path d="M979.26,82.34c0,1.84,1.22,3.32,3.64,4.47a49,49,0,0,0,8.86,3,93.13,93.13,0,0,1,10.44,3.29,20.29,20.29,0,0,1,8.85,6.66,18.4,18.4,0,0,1,3.64,11.67q0,10.58-7.89,16.27t-19.71,5.7q-21.15,0-28.83-16.34l15.38-8.65q3,8.92,13.45,8.93,9.48,0,9.48-5.91c0-1.83-1.22-3.31-3.64-4.46a52.84,52.84,0,0,0-8.86-3.09,91.38,91.38,0,0,1-10.43-3.43A21.4,21.4,0,0,1,964.78,94a17.12,17.12,0,0,1-3.64-11.19q0-10.17,7.48-16t18.61-5.84a31.08,31.08,0,0,1,15.24,3.78,27.63,27.63,0,0,1,10.85,10.78l-15.11,8.24a11.29,11.29,0,0,0-11-7,10,10,0,0,0-5.7,1.52A4.7,4.7,0,0,0,979.26,82.34Z"></path><path class="cls-1" d="M409.32,172.69A32,32,0,0,1,432.66,182a32.5,32.5,0,0,1,0,45.86,32,32,0,0,1-23.34,9.34H392.43v31.58H373.48V172.69Zm0,46.82a13.26,13.26,0,0,0,10-4.18,15.59,15.59,0,0,0,0-20.81,13.39,13.39,0,0,0-10-4.12H392.43v29.11Z"></path><path class="cls-1" d="M469.87,212a18.48,18.48,0,0,1,8.17-9.88,24.88,24.88,0,0,1,12.7-3.3v19.77a20.83,20.83,0,0,0-14.48,3.3q-6.39,4.26-6.39,14.14v32.82H452.16V200.15h17.71Z"></path><path class="cls-1" d="M556.92,260.22a36.64,36.64,0,1,1,10.57-25.74A35.21,35.21,0,0,1,556.92,260.22Zm-39.06-12.15a17.85,17.85,0,0,0,13.25,5.36,18.09,18.09,0,0,0,13.32-5.36,19.94,19.94,0,0,0,0-27.18,18.09,18.09,0,0,0-13.32-5.36,17.85,17.85,0,0,0-13.25,5.36,20.1,20.1,0,0,0,0,27.18Z"></path><path class="cls-1" d="M632.58,200.15h17.3v65.36q0,15.93-10.51,24.3T614,298.19a42.89,42.89,0,0,1-19.57-4.26,29.76,29.76,0,0,1-13-12.49l15.1-8.65q5.22,9.6,18,9.61,8.37,0,13.18-4.39t4.81-12.5V258.1q-7.83,10.42-22,10.43a32.43,32.43,0,0,1-24.38-10.23,36.37,36.37,0,0,1,.07-49.77,32.37,32.37,0,0,1,24.31-10.3q14.13,0,22,10.44Zm-33,46.76a20.67,20.67,0,0,0,27.6,0,19.4,19.4,0,0,0,0-26.92,20.67,20.67,0,0,0-27.6,0,19.42,19.42,0,0,0,0,26.92Z"></path><path class="cls-1" d="M683.65,212a18.48,18.48,0,0,1,8.17-9.88,24.88,24.88,0,0,1,12.7-3.3v19.77a20.83,20.83,0,0,0-14.48,3.3q-6.39,4.26-6.39,14.14v32.82H665.94V200.15h17.71Z"></path><path class="cls-1" d="M764.39,200.15H782.1v68.66H764.39v-8.1q-8,10-22.38,10-13.74,0-23.55-10.51t-9.82-25.74q0-15.24,9.82-25.75T742,198.23q14.41,0,22.38,10Zm-32.68,48.27a18.31,18.31,0,0,0,13.59,5.42A18.53,18.53,0,0,0,759,248.42a20.61,20.61,0,0,0,0-27.88,18.53,18.53,0,0,0-13.66-5.42,18.31,18.31,0,0,0-13.59,5.42q-5.36,5.43-5.36,13.94T731.71,248.42Z"></path><path class="cls-1" d="M874.09,198.23q11.82,0,18.88,7.69t7.08,20.6v42.29H882.33V227.75q0-6.18-3-9.61t-8.51-3.43q-6,0-9.41,4T858,230.22v38.59H840.32V227.75q0-6.18-3-9.61t-8.52-3.43a11.9,11.9,0,0,0-9.4,4q-3.51,4-3.5,11.53v38.59H798.16V200.15h17.72v7.28q6.18-9.19,19.08-9.2,12.63,0,18.68,9.89Q860.5,198.24,874.09,198.23Z"></path><path class="cls-1" d="M931.49,219.65q0,2.74,3.63,4.46a48.23,48.23,0,0,0,8.86,3,91.18,91.18,0,0,1,10.44,3.3,20.29,20.29,0,0,1,8.85,6.66,18.38,18.38,0,0,1,3.64,11.67q0,10.58-7.89,16.27t-19.71,5.7q-21.13,0-28.83-16.34l15.38-8.65q3,8.92,13.45,8.92,9.48,0,9.48-5.9c0-1.83-1.22-3.32-3.64-4.46a51.11,51.11,0,0,0-8.86-3.09,91.46,91.46,0,0,1-10.43-3.44,21.31,21.31,0,0,1-8.86-6.52,17.09,17.09,0,0,1-3.64-11.19q0-10.16,7.48-16t18.61-5.84A31.08,31.08,0,0,1,954.69,202a27.63,27.63,0,0,1,10.85,10.78L950.43,221a11.3,11.3,0,0,0-11-7,10.12,10.12,0,0,0-5.7,1.51A4.71,4.71,0,0,0,931.49,219.65Z"></path><rect width="300" height="300"></rect><path class="cls-2" d="M195.53,138.54v61q0,21.54-11.79,33.4t-34,11.86q-21.94,0-33.81-11.93t-11.86-33.47V108.51L78.17,98.62V200.19Q78.44,231,97.79,248.6t51.94,17.59l7-.28q30-2.18,47.5-20t17.65-46V128.49Z"></path><path class="cls-1" d="M113.11,112.65l36.89,14,95.47-36.59L150,53.52h0L54.68,90.05a.07.07,0,0,0,0,.12l14.21,5.38v66.21h0l-18.39-6.93V109.41l-10.37-4A16.55,16.55,0,0,1,29.37,90.58,16.18,16.18,0,0,1,39.83,74.89l104.34-40a16.28,16.28,0,0,1,11.66,0l104.34,40a16.3,16.3,0,0,1,0,30.44l-104.34,40a16.28,16.28,0,0,1-11.66,0l-31.07-11.9Z"></path></g></svg>