<svg xmlns="http://www.w3.org/2000/svg" viewBox="0 0 1018.67 304.92"><defs><style>.cls-1{fill:#6dcff6;}.cls-2{fill:#fff;}</style></defs><g id="Layer_71" data-name="Layer 71"><path d="M454.35,118.94q-14.55,14.49-35.42,14.48t-35.36-14.48q-14.49-14.49-14.48-35.5T383.57,48q14.49-14.49,35.36-14.49T454.35,48q14.55,14.49,14.56,35.49T454.35,118.94ZM396.82,106A32,32,0,0,0,441,106Q450,97.18,450,83.44T441,60.79a31.82,31.82,0,0,0-44.21,0q-8.93,8.92-8.92,22.65T396.82,106Z"></path><path d="M519.57,60.92q11.26,0,18.61,7.56t7.34,20.87V131.5H527.81v-40q0-6.86-3.71-10.5a13.51,13.51,0,0,0-9.88-3.64q-6.87,0-11,4.26t-4.12,12.77V131.5H481.4V62.85h17.71v7.69Q505.58,60.92,519.57,60.92Z"></path><path d="M560.63,131.5V31.27h17.71V131.5Z"></path><path d="M603.33,54.61a11,11,0,0,1-10.85-10.85,10.62,10.62,0,0,1,3.23-7.69,10.33,10.33,0,0,1,7.62-3.29,10.47,10.47,0,0,1,7.75,3.29,10.66,10.66,0,0,1,3.23,7.69,10.42,10.42,0,0,1-3.23,7.62A10.57,10.57,0,0,1,603.33,54.61Zm-8.79,76.89V62.85h17.71V131.5Z"></path><path d="M666.62,60.92q11.26,0,18.61,7.56t7.35,20.87V131.5H674.86v-40q0-6.86-3.7-10.5a13.55,13.55,0,0,0-9.89-3.64q-6.87,0-11,4.26t-4.12,12.77V131.5H628.45V62.85h17.72v7.69Q652.62,60.92,666.62,60.92Z"></path><path d="M722.65,104.45q3.55,12.92,19.36,12.91,10.15,0,15.37-6.87l14.28,8.24q-10.15,14.7-29.93,14.69-17,0-27.32-10.3t-10.3-25.95q0-15.51,10.16-25.88t26.09-10.37q15.1,0,24.92,10.44t9.82,25.81a41.26,41.26,0,0,1-.69,7.28Zm-.28-13.73h35c-1-4.67-3.09-8.15-6.24-10.44a18,18,0,0,0-10.78-3.43,18.67,18.67,0,0,0-11.81,3.64A17.44,17.44,0,0,0,722.37,90.72Z"></path><path class="cls-1" d="M406.3,270.73q-14.3,0-24-6.39A34.07,34.07,0,0,1,368.54,247l16.2-9.47q5.63,14.7,22.1,14.69,8,0,11.68-2.88a9.08,9.08,0,0,0-.83-15.17q-4.53-2.82-16.2-6.11a101.24,101.24,0,0,1-10.92-3.85,47,47,0,0,1-8.92-5.15,21,21,0,0,1-6.8-8.17,26.67,26.67,0,0,1-2.33-11.53q0-13.05,9.27-20.8a33.62,33.62,0,0,1,22.31-7.76,37.11,37.11,0,0,1,20.53,5.7,38.33,38.33,0,0,1,13.8,15.86l-15.93,9.2q-5.78-12.36-18.4-12.36-5.91,0-9.27,2.68a8.44,8.44,0,0,0-3.36,6.93,8.75,8.75,0,0,0,3.77,7.35q3.78,2.81,14.49,6.11,4.39,1.37,6.66,2.12t6.18,2.34a37.46,37.46,0,0,1,6,3,47.62,47.62,0,0,1,4.87,3.71,19.18,19.18,0,0,1,4.19,4.8,27.59,27.59,0,0,1,3.5,13.6q0,13.32-9.68,21.14T406.3,270.73Z"></path><path class="cls-1" d="M489.92,217.18H474.4v28.56q0,3.57,1.78,5.22a8.26,8.26,0,0,0,5.22,1.85,74.75,74.75,0,0,0,8.52-.07v16.07q-18.27,2.06-25.75-3.44t-7.48-19.63V217.18H444.74v-17h11.95V186.29l17.71-5.36v19.22h15.52Z"></path><path class="cls-1" d="M548.82,200.15h17.71v68.66H548.82v-7.69q-6.47,9.61-20.46,9.61-11.26,0-18.61-7.55t-7.34-20.87V200.15h17.71v40q0,6.87,3.71,10.5t9.88,3.64q6.87,0,11-4.25t4.12-12.77Z"></path><path class="cls-1" d="M634.77,172.69h17.71v96.12H634.77v-8.1q-7.83,10-22.24,10-13.87,0-23.69-10.51T579,234.48q0-15.24,9.82-25.75t23.69-10.5q14.41,0,22.24,10Zm-32.61,75.73a18.55,18.55,0,0,0,13.66,5.42,18.33,18.33,0,0,0,13.6-5.42q5.36-5.43,5.35-13.94t-5.35-13.94a18.33,18.33,0,0,0-13.6-5.42,18.55,18.55,0,0,0-13.66,5.42q-5.43,5.43-5.42,13.94T602.16,248.42Z"></path><path class="cls-1" d="M677.47,191.91a11,11,0,0,1-10.85-10.84,10.66,10.66,0,0,1,3.23-7.69,10.3,10.3,0,0,1,7.62-3.3,10.47,10.47,0,0,1,7.76,3.3,10.66,10.66,0,0,1,3.23,7.69,10.42,10.42,0,0,1-3.23,7.62A10.58,10.58,0,0,1,677.47,191.91Zm-8.79,76.9V200.15H686.4v68.66Z"></path><path class="cls-1" d="M717.56,241.76q3.57,12.9,19.36,12.9,10.17,0,15.38-6.86L766.58,256q-10.16,14.68-29.93,14.69-17,0-27.32-10.3t-10.3-26q0-15.51,10.16-25.88t26.09-10.37q15.11,0,24.92,10.44T770,234.48a41.26,41.26,0,0,1-.69,7.28ZM717.29,228h35q-1.51-7-6.24-10.44a17.92,17.92,0,0,0-10.78-3.43,18.61,18.61,0,0,0-11.81,3.64A17.38,17.38,0,0,0,717.29,228Z"></path><path class="cls-1" d="M796,219.65q0,2.74,3.64,4.46a47.85,47.85,0,0,0,8.85,3,91.18,91.18,0,0,1,10.44,3.3,20.24,20.24,0,0,1,8.85,6.66,18.38,18.38,0,0,1,3.64,11.67q0,10.58-7.89,16.27t-19.71,5.7q-21.13,0-28.83-16.34l15.38-8.65q3,8.92,13.45,8.92,9.48,0,9.48-5.9c0-1.83-1.22-3.32-3.64-4.46a51.11,51.11,0,0,0-8.86-3.09,92.11,92.11,0,0,1-10.43-3.44,21.38,21.38,0,0,1-8.86-6.52,17.09,17.09,0,0,1-3.64-11.19q0-10.16,7.49-16t18.6-5.84A31.08,31.08,0,0,1,819.17,202,27.63,27.63,0,0,1,830,212.79L814.92,221a11.31,11.31,0,0,0-11-7,10.12,10.12,0,0,0-5.7,1.51A4.71,4.71,0,0,0,796,219.65Z"></path><rect width="300" height="300"></rect><path class="cls-2" d="M195.53,138.54v61q0,21.54-11.79,33.4t-34,11.86q-21.94,0-33.81-11.93t-11.86-33.47V108.51L78.17,98.62V200.19Q78.44,231,97.79,248.6t51.94,17.59l7-.28q30-2.18,47.5-20t17.65-46V128.49Z"></path><path class="cls-1" d="M113.11,112.65l36.89,14,95.47-36.59L150,53.52h0L54.68,90.05a.07.07,0,0,0,0,.12l14.21,5.38v66.21h0l-18.39-6.93V109.41l-10.37-4A16.55,16.55,0,0,1,29.37,90.58,16.18,16.18,0,0,1,39.83,74.89l104.34-40a16.28,16.28,0,0,1,11.66,0l104.34,40a16.3,16.3,0,0,1,0,30.44l-104.34,40a16.28,16.28,0,0,1-11.66,0l-31.07-11.9Z"></path></g></svg>