<svg xmlns="http://www.w3.org/2000/svg" xmlns:xlink="http://www.w3.org/1999/xlink" viewBox="0 0 2834.4 2645.64"><defs><style>.cls-1{fill:none;}.cls-2{fill:#def2fd;}.cls-3{fill:#010101;}.cls-4{fill:#5b73b7;}.cls-5{fill:#fff;}.cls-6{fill:#005a96;}.cls-7{fill:#6dcff6;}.cls-8{clip-path:url(#clip-path);}</style><clipPath id="clip-path"><path class="cls-1" d="M901.2,1735.11c-90.06,0-150.19-73-134.31-163S868.65,1409,958.7,1409s150.18,73,134.3,163.06S991.25,1735.11,901.2,1735.11Z"/></clipPath></defs><g id="Layer_70" data-name="Layer 70"><g id="Get_a_digital_diploma" data-name="Get a digital diploma"><path class="cls-2" d="M2191.49,2511.05c427.67-277.83,721.1-670.9,624.42-1311.08-22.63-149.81-159.75-903.45-814.28-1137.09C1423-143.66,816.74,190.68,519.22,599.21,272.73,937.66,124.73,1483.3,342.12,1836.86c136.7,222.33,274.2,135,673.63,488.28"/><path class="cls-3" d="M1426.85,461.63a4.78,4.78,0,0,1-4.22-2.53l-148.75-279a4.76,4.76,0,1,1,8.41-4.48l148.76,279a4.77,4.77,0,0,1-4.2,7Z"/><path class="cls-3" d="M1473.27,456.71h-.18a4.76,4.76,0,0,1-4.59-4.94l9-239.8a4.84,4.84,0,0,1,5-4.59,4.78,4.78,0,0,1,4.59,4.95l-9,239.8A4.77,4.77,0,0,1,1473.27,456.71Z"/><path class="cls-3" d="M1339.66,445.29a4.78,4.78,0,0,1-3.38-1.4L1192.5,299.67a4.77,4.77,0,1,1,6.75-6.74L1343,437.15a4.77,4.77,0,0,1-3.38,8.14Z"/><path class="cls-4" d="M2466.51,455.54l0-.58a7.67,7.67,0,0,0-7.53-8.41H1448.89a9.16,9.16,0,0,0-8.75,8.41L1339.07,1804.7a7.49,7.49,0,0,0,7.53,8.18H2356.71a8.84,8.84,0,0,0,8.75-8l97.82-1306.19Z"/><path class="cls-5" d="M2335.39,1814.81H1325.28a7.45,7.45,0,0,1-7.53-8.14L1418.82,453.1a8.91,8.91,0,0,1,8.74-8.14H2437.68a7.45,7.45,0,0,1,7.53,8.14L2344.14,1806.67A8.92,8.92,0,0,1,2335.39,1814.81Z"/><path class="cls-6" d="M2335.39,1819.58H1325.28a12.21,12.21,0,0,1-12.29-13.27L1414.06,452.74a13.6,13.6,0,0,1,13.51-12.55H2437.68A12.21,12.21,0,0,1,2450,453.45L2348.9,1807A13.61,13.61,0,0,1,2335.39,1819.58ZM1427.57,449.73a4.13,4.13,0,0,0-4,3.72L1322.5,1807a2.84,2.84,0,0,0,.71,2.17,2.75,2.75,0,0,0,2.07.85H2335.39a4.14,4.14,0,0,0,4-3.73L2440.45,452.74a2.76,2.76,0,0,0-.7-2.16,2.71,2.71,0,0,0-2.07-.85Z"/><path class="cls-6" d="M2385.45,365.09l0-.59a7.68,7.68,0,0,0-7.53-8.43H1367.83a9.17,9.17,0,0,0-8.75,8.43L1258,1718.13a7.5,7.5,0,0,0,7.53,8.2H2275.66a8.85,8.85,0,0,0,8.75-8.06l97.81-1309.95Z"/><path class="cls-5" d="M2254.33,1728.26H1244.22a7.45,7.45,0,0,1-7.53-8.14L1337.76,366.55a8.92,8.92,0,0,1,8.75-8.14H2356.62a7.45,7.45,0,0,1,7.53,8.14L2263.08,1720.12A8.91,8.91,0,0,1,2254.33,1728.26Z"/><path class="cls-3" d="M2254,1733H1244.53a12.5,12.5,0,0,1-12.58-13.57L1288.81,958a4.77,4.77,0,0,1,9.51.71l-56.85,761.44a3,3,0,0,0,3.06,3.32H2254a4.46,4.46,0,0,0,4.32-4l68.62-919a4.77,4.77,0,1,1,9.51.71l-68.62,919A13.93,13.93,0,0,1,2254,1733Z"/><path class="cls-3" d="M1313.81,692.19h-.36a4.78,4.78,0,0,1-4.41-5.11L1333,366.5a13.93,13.93,0,0,1,13.83-12.86h1009.5a12.5,12.5,0,0,1,12.58,13.57l-7.1,95a4.77,4.77,0,1,1-9.51-.71l7.09-95a3,3,0,0,0-3.06-3.32H1346.81a4.47,4.47,0,0,0-4.32,4l-23.93,320.57A4.77,4.77,0,0,1,1313.81,692.19Z"/><path class="cls-2" d="M2076.78,715.13a122.53,122.53,0,0,1-55.18-13A116.06,116.06,0,0,1,1962,631c-20-66.51,19.35-140.86,87.62-165.74,34.25-12.48,70.15-10.81,101.09,4.72a116,116,0,0,1,59.57,71.13c20,66.52-19.35,140.87-87.62,165.74A134,134,0,0,1,2076.78,715.13Zm18.77-248.6a124.46,124.46,0,0,0-42.64,7.69c-63.6,23.18-100.27,92.28-81.74,154a106.57,106.57,0,0,0,54.71,65.35c28.57,14.33,61.8,15.85,93.55,4.28,63.6-23.18,100.27-92.28,81.74-154a106.61,106.61,0,0,0-54.7-65.35A113.23,113.23,0,0,0,2095.55,466.53Z"/><path class="cls-2" d="M2079.27,682.19a91.43,91.43,0,0,1-41.13-9.68,86.54,86.54,0,0,1-44.42-53c-14.86-49.52,14.38-104.87,65.17-123.38,25.5-9.3,52.25-8,75.31,3.53a86.48,86.48,0,0,1,44.42,53c14.86,49.52-14.38,104.86-65.17,123.37A99.64,99.64,0,0,1,2079.27,682.19Zm13.79-182.72a90.3,90.3,0,0,0-30.9,5.57c-46.13,16.82-72.73,66.91-59.31,111.67A77.12,77.12,0,0,0,2042.42,664c20.69,10.38,44.75,11.47,67.76,3.09,46.13-16.81,72.74-66.91,59.31-111.67a77.14,77.14,0,0,0-39.57-47.27A82,82,0,0,0,2093.06,499.47Z"/><polygon class="cls-5" points="2257.51 569.36 1939.57 685.23 1914.83 602.75 2232.78 486.88 2257.51 569.36"/><path class="cls-2" d="M1939.57,690a4.84,4.84,0,0,1-2.14-.5,4.74,4.74,0,0,1-2.43-2.9l-24.74-82.47a4.77,4.77,0,0,1,2.93-5.86L2231.14,482.4a4.77,4.77,0,0,1,6.2,3.11L2262.08,568a4.76,4.76,0,0,1-2.93,5.85l-318,115.87A4.6,4.6,0,0,1,1939.57,690Zm-18.88-84.3,22,73.32,309-112.6-22-73.33Z"/><path class="cls-3" d="M2142.12,624.12a10.06,10.06,0,0,1-3.76-.73,9.6,9.6,0,0,1-6-9.83l3.87-51.88a2.62,2.62,0,0,0-1.91-3,3.89,3.89,0,0,0-4.59,2l-19,31.75a10.44,10.44,0,0,1-11.77,4.89,9.56,9.56,0,0,1-7.15-9.36c0-.19-.13-.27-.37-.25a1.12,1.12,0,0,0-.74.48l-19.9,26.36a10.47,10.47,0,0,1-11.14,3.91,9.56,9.56,0,0,1-7.06-8.31L2047,559.79a2.61,2.61,0,0,0-2.26-2.48,4.06,4.06,0,0,0-4.36,2.29l-24.55,47.09a4.77,4.77,0,1,1-8.46-4.41l24.55-47.09a13.6,13.6,0,0,1,14.57-7.26,12.15,12.15,0,0,1,10,10.8l5.6,50.33c0,.14.16.2.38.18a1.08,1.08,0,0,0,.73-.48l19.9-26.36a10.48,10.48,0,0,1,11.62-3.76,9.61,9.61,0,0,1,6.64,9.21c0,.2.2.28.45.23a1.08,1.08,0,0,0,.73-.57l19-31.76a13.52,13.52,0,0,1,15.66-6.18,12.23,12.23,0,0,1,8.55,12.82l-3.87,51.89a.31.31,0,0,0,.33.3,1,1,0,0,0,.73-.44l63.22-76.47a4.77,4.77,0,1,1,7.35,6.07l-63.21,76.47A10.58,10.58,0,0,1,2142.12,624.12Z"/><path class="cls-2" d="M1804.35,517.42H1484a20,20,0,0,1-20.23-21.87l.12-1.63a24,24,0,0,1,23.49-21.86h320.34A20,20,0,0,1,1828,493.92l-.12,1.63A24,24,0,0,1,1804.35,517.42Z"/><path class="cls-2" d="M1799.84,635H1479.51a20,20,0,0,1-20.23-21.86l.12-1.64a24,24,0,0,1,23.49-21.86h320.34a20,20,0,0,1,20.23,21.86l-.12,1.64A24,24,0,0,1,1799.84,635Z"/><path class="cls-6" d="M1464.66,905.52q-4,16-16.24,25.21t-29.72,9.2q-19.1,0-27.77-12.85t-4.77-35.26l1.06-6.07a68.43,68.43,0,0,1,9.45-25.22A49,49,0,0,1,1414,843.8a45.82,45.82,0,0,1,22.79-5.82q17.18,0,26.06,9.2t7.61,25.83H1450q.93-9.62-2.91-13.94t-13.25-4.33a20.92,20.92,0,0,0-16.58,7.33q-6.36,7.32-9.2,22.73l-1.31,7.49q-2.8,16.1.76,23.51t14.07,7.43q9.48,0,14.9-4.32t7.69-13.39Z"/><path class="cls-6" d="M1539.52,895.57h-39.25l-4.65,26.57h46.07l-2.88,16.43H1472.3l17.36-99.23H1556l-2.9,16.56h-45.93l-4.14,23.65h39.26Z"/><path class="cls-6" d="M1593.9,902.24h-16.29l-6.36,36.33h-20.44l17.36-99.23H1605q17.58,0,25.75,7.84t5.67,22.15a35.85,35.85,0,0,1-7.36,16.93,38.33,38.33,0,0,1-15.22,10.8l14.38,40.55-.17,1h-21.95Zm-13.39-16.56H1597q7.7,0,12.61-3.91a17.1,17.1,0,0,0,6.12-10.81q1.21-7-2.06-11t-11.53-4h-16.42Z"/><path class="cls-6" d="M1726.86,855.9h-30.4L1682,938.57h-20.45L1676,855.9h-30l2.9-16.56h80.82Z"/><path class="cls-6" d="M1745.79,938.57h-20.45l17.36-99.23h20.45Z"/><path class="cls-6" d="M1831.53,898h-39.26l-7.09,40.55h-20.45l17.36-99.23h64.61l-2.9,16.56h-44.16l-4.48,25.63h39.25Z"/><path class="cls-6" d="M1862.94,938.57h-20.45l17.36-99.23h20.45Z"/><path class="cls-6" d="M1965.56,905.52q-4,16-16.24,25.21t-29.72,9.2q-19.08,0-27.77-12.85t-4.77-35.26l1.06-6.07a68.27,68.27,0,0,1,9.46-25.22,48.85,48.85,0,0,1,17.34-16.73,45.84,45.84,0,0,1,22.79-5.82q17.18,0,26.06,9.2t7.61,25.83h-20.44q.93-9.62-2.91-13.94t-13.25-4.33a20.94,20.94,0,0,0-16.58,7.33q-6.36,7.32-9.19,22.73l-1.31,7.49q-2.82,16.1.75,23.51t14.07,7.43q9.48,0,14.9-4.32t7.7-13.39Z"/><path class="cls-6" d="M2032.8,918.12H1997l-10.39,20.45h-21.74l54.3-99.23h19l19.78,99.23h-21.74Zm-27.43-16.56h24.81l-6-37.14Z"/><path class="cls-6" d="M2147.61,855.9h-30.39l-14.47,82.67h-20.44l14.46-82.67h-30l2.9-16.56h80.82Z"/><path class="cls-6" d="M2212,895.57h-39.26l-4.65,26.57h46.08l-2.88,16.43H2144.8l17.37-99.23h66.37l-2.89,16.56h-45.94l-4.13,23.65h39.25Z"/><path class="cls-6" d="M2383.83,2453.08c-7.78,44.35-50.19,80.43-94.54,80.43H1870c-24.72-20.83-51-40.06-76-60.51-43.83-35.81-89.85-69.2-137-101-95.65-64.64-196.45-122.42-298.32-178.4-53.6-29.45-109.24-56.09-164.16-83.5q-82.89-41.36-166.09-82.2-76-37.42-151.85-75C761.76,1564.4,637,1124,661.75,1124l1884.07-53.18c44.35,0,74.11,36.08,66.33,80.43Z"/><path class="cls-7" d="M608,1075.36H2506.76c41.91,0,69.93,34,62.58,75.88L2341,2453.08c-7.35,41.91-47.28,75.88-89.19,75.88H353c-41.9,0-69.92-34-62.57-75.88L518.78,1151.24C526.13,1109.33,566.06,1075.36,608,1075.36Z"/><path class="cls-3" d="M2331.82,2478.79a4.87,4.87,0,0,1-.84-.08,4.78,4.78,0,0,1-3.86-5.54L2564.64,1150.4c3.34-19.06-.95-36.88-12.11-50.16-10.89-13-27.15-20.11-45.77-20.11H2311.12a4.77,4.77,0,1,1,0-9.54h195.64c21.49,0,40.34,8.35,53.08,23.52,13,15.48,18,36.06,14.2,58L2336.51,2474.86A4.77,4.77,0,0,1,2331.82,2478.79Z"/><path class="cls-3" d="M465.78,1481.76a5.09,5.09,0,0,1-.77-.06,4.76,4.76,0,0,1-3.94-5.47l53-325.75c7.73-44.08,49.85-79.89,93.9-79.89h815.19a4.77,4.77,0,1,1,0,9.54H608c-39.63,0-77.54,32.27-84.5,71.94l-53,325.69A4.76,4.76,0,0,1,465.78,1481.76Z"/><path class="cls-7" d="M53.37,2529.73H2261.6c29.42,0,53.36,24.32,53.36,55.57s-23.94,55.57-53.36,55.57H53.37C23.89,2640.87,0,2616.6,0,2585.3S23.89,2529.73,53.37,2529.73Z"/><path class="cls-5" d="M654.77,1125.55H2449.29c39.61,0,66.09,31.63,59.14,70.64L2292.65,2408.13c-6.94,39-44.68,70.64-84.29,70.64H413.84c-39.61,0-66.09-31.63-59.14-70.64L570.48,1196.19C577.42,1157.18,615.16,1125.55,654.77,1125.55Z"/><path class="cls-6" d="M2499.06,1248.84l9.37-52.53c7-39-19.53-70.54-59.14-70.54H654.77c-39.61,0-77.35,31.53-84.29,70.54l-9.37,52.53Z"/><circle class="cls-2" cx="2235.35" cy="1185.5" r="32.38" transform="translate(567.99 3088.68) rotate(-76.72)"/><circle class="cls-2" cx="2324.87" cy="1187.4" r="32.38"/><circle class="cls-2" cx="2412.48" cy="1187.4" r="32.38" transform="translate(-270.76 1013.6) rotate(-22.5)"/><path class="cls-2" d="M2084.62,2421.43H458.39c-10.8,0-18.94-6.85-16.94-14.27l194-1098.5c.42-1.55,102.54,5.26,104.8,5.26l1632.84-2.06a37,37,0,0,1,36.34,43.92L2210.07,2395a28.39,28.39,0,0,1-26.77,23C2151.12,2419.3,2094.73,2421.43,2084.62,2421.43Z"/><path class="cls-3" d="M2261.6,2645.64H472.51a4.77,4.77,0,0,1,0-9.54H2261.6c27.25,0,48.59-22.32,48.59-50.8s-21.34-50.8-48.59-50.8H506.19a4.77,4.77,0,1,1,0-9.54H2261.6c32.6,0,58.13,26.5,58.13,60.34S2294.2,2645.64,2261.6,2645.64Z"/><g class="cls-8"><path class="cls-6" d="M779.8,1687.57c27.44,31.45,68.56,50.89,117.68,51.15s97.22-18.72,136-49.81c-36.15-12.08-78-19-123.47-19.23A463.76,463.76,0,0,0,779.8,1687.57Z"/><path class="cls-3" d="M898.47,1743.5h-1c-48.72-.26-91.78-19-121.25-52.78l-4.93-5.64,7.2-2.08a465.3,465.3,0,0,1,129.06-18.08H910c45,.24,87,6.79,125,19.47l8.29,2.77-6.82,5.48C995.53,1725.45,946.56,1743.5,898.47,1743.5Zm-109.88-53.43c27.41,28.13,65.77,43.65,108.92,43.88,43.62.28,87.85-15.07,125.87-43.26-34.72-10.57-72.82-16-113.39-16.24A455.81,455.81,0,0,0,788.59,1690.07Z"/><path class="cls-3" d="M1036.93,1562.22c-5.87-58-25.66-134-89.54-124.65-61.29,9-100.94,74.48-122.8,125.24-13.3,30.89,5,60.87,36.82,61l116.76.61C1010.74,1624.63,1040.11,1593.63,1036.93,1562.22Z"/><path class="cls-5" d="M997.29,1494.89c0-.14,0-.42,0-.42l-106-.81-.11.26a74.06,74.06,0,0,0-5.12,16.63l-5.64,31.06c-3.78,20.8,2.73,39.13,15.67,49.84l-14.73,81.09c-2.92,16.14,7.77,29.29,23.89,29.37s31.55-12.93,34.48-29.06l14.51-79.9a75.55,75.55,0,0,0,35.65-50.77l6.36-35A62.59,62.59,0,0,0,997.29,1494.89Z"/><path class="cls-3" d="M905.42,1706.68h-.18c-9.13,0-17.15-3.67-22.58-10.21s-7.66-15.47-6-24.78L891,1593a4.77,4.77,0,1,1,9.38,1.71l-14.28,78.68c-1.18,6.48.21,12.51,3.92,17s9,6.73,15.29,6.76h.13c13.84,0,27.12-11.25,29.64-25.14l14.34-79a4.77,4.77,0,0,1,9.39,1.71l-14.34,79C941.14,1691.92,923.65,1706.68,905.42,1706.68Z"/><path class="cls-3" d="M932.72,1568h-.13a26,26,0,0,1-18.87-8.27,4.77,4.77,0,1,1,7-6.5,16.23,16.23,0,0,0,11.94,5.23,16.62,16.62,0,0,0,12-5.15,4.77,4.77,0,0,1,6.92,6.56A25.78,25.78,0,0,1,932.72,1568Z"/><path class="cls-3" d="M924.63,1606.16h-.28a4.77,4.77,0,0,1,0-9.54,2.43,2.43,0,0,0,.27,0c27.89,0,55-24.75,60.57-55.29l6.37-35c2.69-14.82-.46-29-8.65-38.83-7.08-8.53-17.44-13.26-29.15-13.32h-.25c-28.9,0-57,25.63-62.76,57.26l-5.64,31.06c-3.85,21.22,3.94,40.57,19.85,49.31a4.77,4.77,0,1,1-4.6,8.36c-19.56-10.75-29.23-34.05-24.63-59.37l5.64-31.06c6.52-36,38.85-65.1,72.14-65.1h.3c14.58.07,27.52,6,36.44,16.77,10,12,13.89,29,10.69,46.63l-6.36,35C988.27,1577.91,956.92,1606.16,924.63,1606.16Z"/></g><path class="cls-3" d="M900.46,1740.58c-28.44,0-55.52-7.21-78.36-21.37-33.16-20.56-54.89-53.89-61.17-93.85-13.72-87.33,50.17-182,142.44-211.09,47.16-14.85,95.51-10.18,132.64,12.84,33.16,20.55,54.88,53.88,61.16,93.84,4.59,29.19.64,60.35-11.41,90.11a4.77,4.77,0,0,1-8.84-3.58c11.4-28.15,15.15-57.57,10.83-85-5.84-37.17-26-68.14-56.77-87.22-34.76-21.54-80.23-25.86-124.75-11.84-87.94,27.7-148.9,117.65-135.88,200.51,5.85,37.18,26,68.15,56.78,87.22,34.76,21.55,80.22,25.86,124.74,11.84,38-12,72.86-36.44,98.06-68.88a4.77,4.77,0,0,1,7.54,5.85c-26.38,34-62.86,59.57-102.73,72.13A180.84,180.84,0,0,1,900.46,1740.58Z"/><path class="cls-6" d="M1899.25,1587.43l-646.78-2.31c-9.3,0-15.86-7.42-14.65-16.51s9.74-16.41,19-16.38l646.78,2.31c9.3,0,15.86,7.43,14.65,16.51S1908.55,1587.47,1899.25,1587.43Z"/><path class="cls-6" d="M1205,1568.5c-1.21,9.08-9.73,16.42-19,16.38s-15.86-7.42-14.65-16.5,9.74-16.42,19-16.39S1206.17,1559.41,1205,1568.5Z"/><path class="cls-7" d="M1889.8,1658.28,1243,1656c-9.3,0-15.86-7.42-14.64-16.5s9.73-16.42,19-16.39l646.79,2.32c9.3,0,15.85,7.42,14.64,16.5S1899.1,1658.31,1889.8,1658.28Z"/><path class="cls-7" d="M1195.5,1639.34c-1.21,9.08-9.74,16.42-19,16.39s-15.86-7.43-14.64-16.51,9.73-16.42,19-16.39S1196.71,1630.26,1195.5,1639.34Z"/><path class="cls-7" d="M1880.34,1729.12l-646.78-2.31c-9.3,0-15.86-7.43-14.65-16.51s9.74-16.42,19-16.38l646.78,2.31c9.3,0,15.86,7.42,14.65,16.5S1889.64,1729.15,1880.34,1729.12Z"/><path class="cls-7" d="M1186,1710.18c-1.21,9.09-9.73,16.42-19,16.39s-15.86-7.42-14.65-16.51,9.74-16.42,19-16.38S1187.26,1701.1,1186,1710.18Z"/><path class="cls-6" d="M1000.5,2196.34,961,2190.45l-11.71-36.75c-2.51-7.9-13.78-7.9-19.06,0l-24.57,36.75-41.58,5.89c-8.94,1.26-14.29,12-9.06,18.13l24.34,28.6-14,40.39c-3,8.68,4.95,15.3,13.46,11.2l39.61-19.06,32.94,19.06c7.08,4.1,17.35-2.52,17.38-11.2l.14-40.39,34.35-28.6C1010.6,2208.32,1009,2197.6,1000.5,2196.34Z"/><path class="cls-6" d="M1187.73,2196.34l-39.53-5.89-11.7-36.75c-2.52-7.9-13.78-7.9-19.06,0l-24.57,36.75-41.58,5.89c-8.94,1.26-14.3,12-9.06,18.13l24.33,28.6-14,40.39c-3,8.68,5,15.3,13.46,11.2l39.61-19.06,32.93,19.06c7.08,4.1,17.36-2.52,17.39-11.2l.14-40.39,34.34-28.6C1197.83,2208.32,1196.22,2197.6,1187.73,2196.34Z"/><path class="cls-6" d="M1375,2196.34l-39.52-5.89-11.7-36.75c-2.52-7.9-13.79-7.9-19.07,0l-24.56,36.75-41.58,5.89c-8.94,1.26-14.3,12-9.07,18.13l24.34,28.6-14,40.39c-3,8.68,4.94,15.3,13.46,11.2l39.61-19.06,32.93,19.06c7.08,4.1,17.35-2.52,17.38-11.2l.14-40.39,34.35-28.6C1385.06,2208.32,1383.45,2197.6,1375,2196.34Z"/><path class="cls-6" d="M1562.18,2196.34l-39.52-5.89L1511,2153.7c-2.51-7.9-13.78-7.9-19.06,0l-24.56,36.75-41.59,5.89c-8.94,1.26-14.29,12-9.06,18.13l24.34,28.6-14,40.39c-3,8.68,5,15.3,13.47,11.2l39.6-19.06,32.94,19.06c7.08,4.1,17.35-2.52,17.38-11.2l.14-40.39,34.35-28.6C1572.28,2208.32,1570.68,2197.6,1562.18,2196.34Z"/><path class="cls-6" d="M1749.41,2196.34l-39.52-5.89-11.71-36.75c-2.51-7.9-13.78-7.9-19.06,0l-24.57,36.75-41.58,5.89c-8.94,1.26-14.29,12-9.06,18.13l24.34,28.6-14,40.39c-3,8.68,5,15.3,13.46,11.2l39.61-19.06,32.94,19.06c7.08,4.1,17.35-2.52,17.38-11.2l.14-40.39,34.35-28.6C1759.51,2208.32,1757.91,2197.6,1749.41,2196.34Z"/><path class="cls-6" d="M820.73,2008.21q-4,16-16.24,25.22t-29.72,9.2q-19.08,0-27.77-12.85t-4.77-35.27l1.06-6.06a68.2,68.2,0,0,1,9.46-25.22,48.76,48.76,0,0,1,17.34-16.73,45.84,45.84,0,0,1,22.79-5.82q17.18,0,26.06,9.2t7.61,25.83H806.11q.93-9.62-2.91-13.94T790,1957.44a20.89,20.89,0,0,0-16.58,7.33q-6.36,7.32-9.19,22.73l-1.31,7.49q-2.82,16.1.75,23.51t14.07,7.43q9.48,0,14.9-4.33t7.7-13.39Z"/><path class="cls-6" d="M918.17,1993.9a68.84,68.84,0,0,1-9.68,25.7,50.24,50.24,0,0,1-17.8,17,46.59,46.59,0,0,1-23.17,6q-12.33,0-21-5.93a30.79,30.79,0,0,1-12-16.94q-3.39-11-1-25.31l.86-4.91a68.45,68.45,0,0,1,9.8-25.79,50.83,50.83,0,0,1,17.91-17.11,46.6,46.6,0,0,1,23.09-6q12.4,0,21,6t11.93,17.11q3.33,11.13.78,25.72Zm-19.93-4.5q2.73-15.6-1.44-23.71t-14.53-8.11a22.06,22.06,0,0,0-17.28,8q-7,8-9.77,23.48l-.84,4.84q-2.67,15.19,1.46,23.58t14.62,8.39a21.81,21.81,0,0,0,17.22-8.08q6.93-8.08,9.71-23.55Z"/><path class="cls-6" d="M1005.42,2041.27H985L956.6,1976l-11.42,65.29H924.73L942.1,1942h20.44L991,2007.46l11.45-65.42h20.37Z"/><path class="cls-6" d="M1104,2028.73a44.78,44.78,0,0,1-17.41,10.25,71,71,0,0,1-23,3.65q-12.87,0-21.61-5.62a29.27,29.27,0,0,1-12.13-16.32q-3.4-10.71-1-25.15l1.18-6.75a69.85,69.85,0,0,1,9.51-25.73,48,48,0,0,1,17.36-16.63,47.17,47.17,0,0,1,23.12-5.75q17.65,0,26.13,8.41t7.5,24.5h-19.9q.13-8.52-3.85-12.47t-12.15-3.95a21.88,21.88,0,0,0-17.25,7.84q-6.82,7.83-9.6,23.3l-1.11,6.34q-2.73,15.61,1.8,23.58t16,8q11.52,0,17.28-4.9l3-17.11h-18.6l2.63-15.06h39.05Z"/><path class="cls-6" d="M1161.44,2004.94h-16.29l-6.35,36.33h-20.45l17.36-99.23h36.87q17.58,0,25.76,7.84T1204,1972a35.8,35.8,0,0,1-7.36,16.93,38.36,38.36,0,0,1-15.21,10.8l14.37,40.55-.17,1h-21.94Zm-13.39-16.56h16.49q7.71,0,12.62-3.91a17,17,0,0,0,6.11-10.81q1.23-7-2.06-11t-11.53-4h-16.42Z"/><path class="cls-6" d="M1267.5,2020.82h-35.85l-10.39,20.45h-21.74l54.3-99.23h18.94l19.78,99.23H1270.8Zm-27.43-16.56h24.8l-6-37.14Z"/><path class="cls-6" d="M1382.31,1958.6h-30.39l-14.47,82.67H1317l14.46-82.67h-30l2.89-16.56h80.83Z"/><path class="cls-6" d="M1472,1942l-11.44,65.36q-2.85,16.27-14.7,25.76t-29.49,9.47q-17.38,0-26-9.2t-6-25.28l11.57-66.11h20.45l-11.46,65.49q-1.71,9.75,2.18,14.21t12.13,4.46q17.24,0,20.69-18.12l11.55-66Z"/><path class="cls-6" d="M1494.69,2024.84h43.41l-2.87,16.43h-63.86l17.36-99.23h20.45Z"/><path class="cls-6" d="M1608,2020.82H1572.2l-10.39,20.45h-21.74l54.29-99.23h19l19.78,99.23h-21.74Zm-27.43-16.56h24.81l-6-37.14Z"/><path class="cls-6" d="M1722.86,1958.6h-30.4L1678,2041.27h-20.45L1672,1958.6h-30l2.9-16.56h80.83Z"/><path class="cls-6" d="M1741.79,2041.27h-20.45l17.37-99.23h20.44Z"/><path class="cls-6" d="M1850.53,1993.9a68.83,68.83,0,0,1-9.67,25.7,50.27,50.27,0,0,1-17.81,17,46.56,46.56,0,0,1-23.16,6q-12.35,0-21-5.93a30.76,30.76,0,0,1-12-16.94q-3.39-11-1-25.31l.86-4.91a68.44,68.44,0,0,1,9.79-25.79,50.85,50.85,0,0,1,17.92-17.11,46.58,46.58,0,0,1,23.09-6q12.4,0,21,6t11.94,17.11q3.33,11.13.78,25.72Zm-19.93-4.5q2.73-15.6-1.44-23.71t-14.53-8.11a22,22,0,0,0-17.27,8q-7,8-9.77,23.48l-.85,4.84q-2.65,15.19,1.46,23.58t14.62,8.39a21.84,21.84,0,0,0,17.23-8.08q6.93-8.08,9.7-23.55Z"/><path class="cls-6" d="M1937.79,2041.27h-20.44L1889,1976l-11.43,65.29H1857.1l17.36-99.23h20.45l28.42,65.42,11.45-65.42h20.37Z"/><path class="cls-6" d="M2011.65,2015.23q1-5.79-2.53-8.89t-13.58-6.54a87.32,87.32,0,0,1-15.64-6.78q-15.32-9.13-12.6-24.61a28.61,28.61,0,0,1,7-14.34,37.71,37.71,0,0,1,14.74-9.85,53.86,53.86,0,0,1,19.67-3.54q10.63,0,18.27,3.85a23.39,23.39,0,0,1,11,10.87,25.76,25.76,0,0,1,1.8,15.95H2019.4q1.18-6.82-2.44-10.6t-11.4-3.79q-7.5,0-12.21,3.18a12.32,12.32,0,0,0-5.61,8.34q-.85,4.85,3.45,8.11t13.27,6.14q16.53,5.24,23.14,13t4.59,19.36a29.42,29.42,0,0,1-13.28,20.2q-11,7.34-27.52,7.33a45.78,45.78,0,0,1-20.12-4.19q-8.67-4.2-12.34-11.48t-2-16.91h20.51q-2.87,16.42,16.75,16.43c4.87,0,8.83-1,11.91-3A11.88,11.88,0,0,0,2011.65,2015.23Z"/><path class="cls-6" d="M2055.45,2021.57q5,0,7.5,2.93a8.67,8.67,0,0,1,1.72,7.5,12.06,12.06,0,0,1-4.33,7.43,13,13,0,0,1-8.52,2.93q-4.9,0-7.43-2.93a8.59,8.59,0,0,1-1.74-7.43,12.19,12.19,0,0,1,4.35-7.46A12.73,12.73,0,0,1,2055.45,2021.57Zm10.07-10.77h-16.36l9.71-68.76h21Z"/><path class="cls-7" d="M889.51,740.26a33.23,33.23,0,1,1,33.23,33.19A33.21,33.21,0,0,1,889.51,740.26Z"/><path class="cls-3" d="M764.13,657.49a47.57,47.57,0,1,1,47.61-47.57A47.65,47.65,0,0,1,764.13,657.49Zm0-80.24a32.67,32.67,0,1,0,32.71,32.67A32.72,32.72,0,0,0,764.13,577.25Z"/><path class="cls-3" d="M775.9,881.54a33.87,33.87,0,1,1,33.88-33.87A33.92,33.92,0,0,1,775.9,881.54Zm0-52.83a19,19,0,1,0,19,19A19,19,0,0,0,775.9,828.71Z"/><path class="cls-3" d="M937.44,485.92a7.43,7.43,0,0,1-5.27-2.18l-19-19a7.45,7.45,0,1,1,10.53-10.54l19,19a7.45,7.45,0,0,1-5.27,12.72Z"/><path class="cls-3" d="M1004,552.38a7.41,7.41,0,0,1-5.27-2.18l-19-19a7.45,7.45,0,0,1,10.54-10.54l19,19a7.45,7.45,0,0,1-5.26,12.72Z"/><path class="cls-3" d="M918.44,552.38a7.45,7.45,0,0,1-5.27-12.72l19-19a7.45,7.45,0,0,1,10.54,10.54l-19,19A7.39,7.39,0,0,1,918.44,552.38Z"/><path class="cls-3" d="M985,485.92a7.45,7.45,0,0,1-5.27-12.72l19-19a7.45,7.45,0,1,1,10.53,10.54l-19,19A7.41,7.41,0,0,1,985,485.92Z"/><path class="cls-3" d="M433.69,828.05a4.71,4.71,0,0,1-.54,1.58c-3.92,7-7.82,14.34-11.62,21.66a4.77,4.77,0,0,1-8.47-4.39c3.84-7.4,7.79-14.77,11.75-21.9a4.77,4.77,0,0,1,8.88,3Zm-28.53,56a4.36,4.36,0,0,1-.39,1.29c-5.27,11.26-10.45,22.93-15.42,34.69a4.77,4.77,0,0,1-8.79-3.71c5-11.87,10.25-23.65,15.57-35a4.77,4.77,0,0,1,9,2.75Zm-29.7,70.25a4.22,4.22,0,0,1-.26,1c-4.44,11.63-8.8,23.65-13,35.73a4.77,4.77,0,0,1-9-3.11c4.2-12.18,8.6-24.29,13.07-36a4.77,4.77,0,0,1,9.17,2.43Zm-24.9,72.14a4,4,0,0,1-.16.68c-3.71,11.95-7.33,24.22-10.76,36.48a4.77,4.77,0,0,1-9.19-2.57c3.45-12.35,7.1-24.71,10.84-36.74a4.77,4.77,0,0,1,9.27,2.15ZM330,1099.94c0,.15-.05.29-.08.43-3.06,12.19-6,24.65-8.78,37a4.77,4.77,0,1,1-9.31-2.08c2.79-12.45,5.76-25,8.83-37.26a4.77,4.77,0,0,1,9.34,1.89Zm-41.71,263.57a4.77,4.77,0,0,1-9.48-.94c0-.14.62-14.29,2.88-38.32a4.77,4.77,0,0,1,9.5.89c-2.23,23.76-2.84,37.69-2.84,37.83A5,5,0,0,1,288.26,1363.51Zm25.05-189.08c0,.07,0,.13,0,.19-2.44,12.39-4.77,25-6.92,37.43a4.77,4.77,0,0,1-9.41-1.55v-.07c2.16-12.52,4.5-25.19,7-37.65a4.77,4.77,0,0,1,9.4,1.65Zm-18.08,113.06a4.77,4.77,0,0,1-9.44-1.32c1.52-12.49,3.24-25.26,5.11-37.94a4.65,4.65,0,0,1,5.42-4,4.76,4.76,0,0,1,4,5.41c-1.86,12.61-3.57,25.3-5.08,37.71Z"/></g></g></svg>