<svg id="Layer_1" data-name="Layer 1" xmlns="http://www.w3.org/2000/svg" viewBox="0 0 576 448"><defs><style>.cls-1{fill:#001e33;}</style></defs><path class="cls-1" d="M540.9,56.77C495,40.11,450.67,32.68,411.8,32,351.1,33,309.1,49.47,288,59.74,266.9,49.47,223.9,32.94,164.8,32c-40-.05-84.4,8.35-129.7,24.77A53.33,53.33,0,0,0,0,106.7V409.6a45.11,45.11,0,0,0,18.89,36.8,46.37,46.37,0,0,0,40.73,6.78c118.9-36.34,209.3,19.05,214.3,22.19,3.88,2.23,7.28,4.63,13.18,4.63,6.52,0,10.12-2.37,14.07-4.58,10.78-6.69,98.3-57.66,214.3-22.27a46.2,46.2,0,0,0,40.75-6.81C569.1,437.6,576,424.2,576,409.6V106.7A53.39,53.39,0,0,0,540.9,56.77ZM272,438.1a303.19,303.19,0,0,0-130.5-29.37A311.68,311.68,0,0,0,50.31,422.5a14.38,14.38,0,0,1-12.69-2.05A14.51,14.51,0,0,1,32,409.6V106.7A21.11,21.11,0,0,1,45.86,86.87C87.66,71.7,127.9,64,164.5,64c51.8.81,89.7,15.26,107.5,23.66Zm272-28.5a13.19,13.19,0,0,1-5.59,10.84,14.43,14.43,0,0,1-12.69,2.13A306.87,306.87,0,0,0,304,438.3V87.66c17.8-8.4,55.7-22.85,107.4-23.66,35.31-.06,76.34,7.48,118.8,22.88A21.18,21.18,0,0,1,544,106.7Z" transform="translate(0 -32)"/></svg>