<svg id="Layer_1" data-name="Layer 1" xmlns="http://www.w3.org/2000/svg" viewBox="0 0 512 512"><defs><style>.cls-1{fill:#001e33;}</style></defs><path class="cls-1" d="M496.2,133.7c8.9,5.6,15.8,15.9,15.8,27.1A31.24,31.24,0,0,1,480.8,192H31.16A31.18,31.18,0,0,1,15.8,133.7L248.1,2.08c4.9-2.77,10-2.77,15.8,0ZM477.7,160,256,34.39,34.34,160H205.4a55.2,55.2,0,0,1-5.4-24,56,56,0,0,1,112,0,55.2,55.2,0,0,1-5.4,24ZM256,160a24,24,0,1,0-24-24A23.94,23.94,0,0,0,256,160ZM64,224H96V352h80V224h32V352h96V224h32V352h80V224h32V352a16,16,0,0,1,0,32H64a16,16,0,0,1,0-32ZM472,416a16,16,0,0,1,0,32H40a16,16,0,0,1,0-32Zm24,64a16,16,0,0,1,0,32H16a16,16,0,0,1,0-32Z" transform="translate(0 0)"/></svg>