<svg xmlns="http://www.w3.org/2000/svg" viewBox="0 0 1000 1000"><g id="Layer_61" data-name="Layer 61"><g id="Layer_62" data-name="Layer 62"><path d="M671.85,722.62l-60-64-124.7-27.43-29.81-41.49,16.53-91.55L516.09,461l1.26-30.41,29.54-12.31-6.5-40-53.6,40.2-42.42-63.64-39.12,25.7c3.6,4.14,11.78,13.61,19.8,23.26,22.37,26.91,21.75,28.76,21.15,30.56-.88,2.62-1.41,4.21-63.45-1.26-28.16-2.48-56.52-5.4-59.68-5.73l-49.7,6.37-.87-1.13c-8.24-10.65-30.92-39.13-36.77-43l2.78-4.16c7.1,4.73,31.45,35.78,37.07,43L323,422.25l.29,0c40.05,4.17,103.74,10,117.13,9.39-4.43-7.23-23.13-29.87-40.82-50.09l-1.89-2.16,48-31.58L488,411.22l56-42,8.44,52.1-30.23,12.6L521,463.29l-42.48,37.49-15.85,87.75,27.47,38.21L614.47,654.1l52.1,55.58-1.11-52.53.19-.48c10.53-25.72,20.69-56.06,18.76-60.19-2.63-5.27-55.59-65.86-90.54-105.31l-3.8-4.28,116.34,2.64,29.36,30.63-3.61,3.46-27.93-29.14-102.82-2.34c18.19,20.57,84,95.21,87.47,102.1.84,1.68,2.81,5.62-7.81,35.88-4.57,13-9.55,25.4-10.59,28Z"/><path d="M672.91,890.81,692,824.49H640.36l-30.58-53.82-52.12,31.51L466,788.37l-216.74-6.23L94.6,750.7,81,717.4H54.53L39,643.7l19.81-49.54-9.69-21.8-8.47-73.84L19.54,501l-2.73-20.47L2.26,461.13l4-3L21.6,478.58l2.25,16.88L45.06,493,54,571l10.24,23-20,50.09L58.59,712.4h25.8l13.83,33.94,151.64,30.82,216.6,6.22.15,0,90,13.56,55-33.24,31.68,55.76h55.41l-18.22,63.18,38-14.11L742.09,820l69.5-28.54,12.48-43.71,30-9.54,53.68,45.14L934.56,742c-13.89-6.88-43.88-21.26-50.28-22.17-9.19-1.32-24.07-25.44-27.55-35.38-9.36,6.2-44.46,37.28-66.29,57.16l-7,6.41,38.39-116.53,91.84-3.72,9.34-57.2c-28.34-14.4-59.45-28.92-63.78-28.92h-.06a1.59,1.59,0,0,0,.74-.29l-2.77-4.16c1.65-1.09,3.51-2.34,37.48,13.84,16.19,7.7,32.12,15.82,32.28,15.9l1.63.83L917.9,632.64l-92.45,3.75L794.09,731.6c6.42-5.79,16.44-14.78,26.54-23.63,35.14-30.81,36.73-30.12,38.73-29.23a2.74,2.74,0,0,1,1.63,2.54c.16,4.71,17.09,32.65,24,33.64,8.86,1.26,49.68,21.58,54.31,23.89l2.5,1.25-32.95,50.8-55.9-47-24.8,7.89L815.73,795.2l-70,28.74-23.69,48.61Z"/><path d="M693,469.62l-57.43-9.57-21.25-23.76,7.18-34.72-2.17-30.43-37.22-7.66-22.71,6.31L551,344.49l-8.33,12.95-61.84,6.19-12.14-70.15,28.95,26.43,6.47-32.33,22.61-4L559.37,309l7.76,11.09,66.07,9.27,36.23,28.05,48.26,9.9L697.84,403l-43.72,1,45.76,26-10.44,16.25,29.9,15.6Zm-54.87-14.21,54.56,9.09L706,460.58l-23.76-12.4,10.55-16.41-56.89-32.33,58.93-1.34L710,370.84l-42.72-8.77-36.1-27.94-66.91-9.39-8.58-12.25L525.38,288.9l-17.06,3-7.53,37.67L476.09,307l8.85,51.17,54.81-5.48L552.42,333l10.24,30.7L582,358.34l42.1,8.67,2.5,34.89-6.82,32.94Z"/><path d="M942.71,679.07,934.2,585.4,952,619.47l37.77-5.91,8.07,29.58Zm-1.25-69,5.48,60.32,45.16-29.41-5.93-21.74L949.28,625Z"/><path d="M321.31,398.45,273.25,371l48.23-5.75L292.4,350.71,295,324.85l22.83-25.51L339,341.76l13.65-11.7,18.57-27-5.9,44.23,22.52,26.08-10.72,21.44Zm-32.43-24.29,33.6,19.2L374,390l8-15.89L360.1,348.86l3.43-25.75-7.1,10.32-19,16.3-20.78-41.57L299.8,327l-2.08,20.81,40.92,20.46Z"/><path d="M242.06,329.81l7.77-64.74,55,24.89-29.5,37.19ZM254,272.43l-6.23,51.91,25-2L297,291.87Z"/><path d="M415.26,287.76l-21.41-1.53,1.22-14.68-15.38-6.15,16.7-7.59v-18.1l20.21,18.66Zm-16-6.16,11.25.81,1-21.94-10.11-9.34V261l-9,4.07,7.94,3.18Z"/><path d="M322.29,297.12l-3.17-20.65,20.4-7.78-38-15.21,14.08-17.21,30.78,20.12,8.31-5.94L376.57,268Zm2.38-17.42,1.49,9.67,41.38-22.2-13.07-10.45-8,5.73-29.88-19.54-6.91,8.45,43.6,17.45Z"/><path d="M453.48,286.48l-25.33-43.21,32,18.28L479,260.44l21.35-6.28,13.23,20.58-30.18,10.49Zm-11.54-29.57,14.34,24.45,26.12-1.09,23.49-8.17L498.12,260l-18.31,5.39h-.29L459,266.62Z"/><path d="M406.43,348l-16.71-23.68,25.2-22.4,13.94,30.66Zm-10.05-22.91,11.29,16,14.9-10.25-9.39-20.67Z"/><path d="M459.37,332.12l-17.49-1.59V290.71L462.19,311ZM446.88,326l8.17.74,1.85-13.89-10-10Z"/><path d="M526.09,501.6,522,446.13l47.55,28.28,11.16,11.16-29.69,10.77Zm1.63-46.27,2.94,40.19,19.19-4,21.81-7.93-5.17-5.16Z"/><path d="M471.3,250.31,451,246.5l-9.78-16.3,41.18-1.11-6.69-6-15.38-6.41,2.84-21.25,13.71-2.11L462,161.5l-16.59,9.95-30.08-23.24,58.8-31.28h37.37l-.45,2.89c-.6,3.84-5.9,37.64-7.1,41.23-.79,2.39-3.76,18.63-5.63,29.36L514.07,239ZM454.11,242l17,3.19,36.56-9.67-14.54-44.74.11-.62c.48-2.76,4.73-27.11,5.92-30.69.75-2.25,4.17-23.1,6.45-37.54H475.33L424.48,149l21.24,16.42,18.41-11,20.09,42.86-16.61,2.56-1.83,13.74,12.62,5.26,16.63,15L449.89,235Z"/><path d="M444.91,214.31l-23.58-2.78-9.75-43.21,41.71,22.25ZM425.43,207l16.09,1.89L447.14,193l-28.28-15.08Z"/><path d="M54.26,774.13,43.55,746.76l-26.72-7.63,21.22-29.7,37.39,35,10.31,14.17-8.53,14.21ZM25,736.27l22.28,6.37,10.29,26.29,16.7-1,5.47-9.12-8.22-11.3L38.8,717Z"/></g><g id="Layer_63" data-name="Layer 63"><path d="M10,375.38a142,142,0,0,1,4.64-36.15,138,138,0,0,1,13-32.62,134.92,134.92,0,0,1,20.43-27.48,133.23,133.23,0,0,1,26.3-21.33,125.79,125.79,0,0,1,31.18-13.65,124.5,124.5,0,0,1,34.69-4.87q11.76,0,32,3.36T200.75,246a68.93,68.93,0,0,0,16.57-1.79L220,339.57h-6.72l-.9-32.24a52.79,52.79,0,0,0-7-25.07,63.6,63.6,0,0,0-17.24-19.7,85.08,85.08,0,0,0-23.89-12.48,83.65,83.65,0,0,0-27.09-4.53q-27.87,0-49.25,15.44t-33.07,43.6q-11.7,28.16-11.7,65a202.08,202.08,0,0,0,3.92,40.75A142.7,142.7,0,0,0,58,443.77a127.28,127.28,0,0,0,16.45,25.86,91,91,0,0,0,20.65,18.63,94.26,94.26,0,0,0,23.29,11A82.57,82.57,0,0,0,143,503q27.65,0,49.36-12.2A74.9,74.9,0,0,0,224.48,456l6.27,2.24q-10.74,27-35,41.25t-55,14.27q-38.73,0-68.44-17.24t-46-48.69Q10,416.35,10,375.38Z"/><path d="M140.76,516.23c-26.14,0-49.59-5.92-69.7-17.58a120.28,120.28,0,0,1-47-49.7c-11-21.23-16.57-46-16.57-73.57a144.71,144.71,0,0,1,4.73-36.78,141,141,0,0,1,13.27-33.22,138.82,138.82,0,0,1,20.81-28,136.51,136.51,0,0,1,26.79-21.71,129.2,129.2,0,0,1,67.18-18.9c7.94,0,18.85,1.14,32.42,3.39,13.31,2.21,22.74,3.33,28,3.33a66.4,66.4,0,0,0,16-1.72l3-.75,2.85,101H210.86l-1-34.67a50.55,50.55,0,0,0-6.67-23.91,61.33,61.33,0,0,0-16.56-18.93,83.06,83.06,0,0,0-23.2-12.11,81.43,81.43,0,0,0-26.28-4.4c-18,0-34,5-47.78,15s-24.65,24.29-32.23,42.53-11.51,39.91-11.51,64a199.85,199.85,0,0,0,3.87,40.24,140.7,140.7,0,0,0,10.71,32.88A125.12,125.12,0,0,0,76.37,468a88.73,88.73,0,0,0,20.08,18.13,92.29,92.29,0,0,0,22.67,10.68A80.25,80.25,0,0,0,143,500.48c17.91,0,34.11-4,48.13-11.88a72.79,72.79,0,0,0,31.08-33.67l1-2.08L234,456.73l-1,2.41c-7.34,18.42-19.48,32.71-36.09,42.47S161.56,516.23,140.76,516.23Zm-.45-274.45a124.23,124.23,0,0,0-64.56,18.15,131.94,131.94,0,0,0-25.81,20.93,133.8,133.8,0,0,0-20,27,136.2,136.2,0,0,0-12.8,32,139.67,139.67,0,0,0-4.56,35.51c0,26.78,5.38,50.76,16,71.27a115.4,115.4,0,0,0,45,47.68c19.33,11.21,41.94,16.9,67.19,16.9,19.9,0,38-4.69,53.69-13.93a78.82,78.82,0,0,0,33-37.62l-1.66-.59A77.6,77.6,0,0,1,193.58,493c-14.78,8.31-31.8,12.52-50.58,12.52a85.6,85.6,0,0,1-25.37-3.86,97.52,97.52,0,0,1-23.89-11.26,93.94,93.94,0,0,1-21.22-19.14,130.23,130.23,0,0,1-16.78-26.36,145.87,145.87,0,0,1-11.11-34.05,205.52,205.52,0,0,1-4-41.25c0-24.76,4-46.95,11.89-65.93S71.9,269.49,86.47,259s31.68-15.92,50.71-15.92a86.59,86.59,0,0,1,27.89,4.66,88.21,88.21,0,0,1,24.59,12.85A66.32,66.32,0,0,1,207.57,281a55.44,55.44,0,0,1,7.32,26.24l.83,29.8h1.71l-2.53-89.78a76.57,76.57,0,0,1-14.15,1.21c-5.63,0-15.07-1.11-28.83-3.39C158.61,242.9,148,241.78,140.31,241.78Z"/><path d="M91.83,709.92v-2.54a8.76,8.76,0,0,0,2.62-.44,18.55,18.55,0,0,0,3.81-1.86,21.58,21.58,0,0,0,5.25-5,48.51,48.51,0,0,0,5.48-8.9l11.76-23.84,58.49-134.77q4.44-10.24,4.76-14.3h5.41l67.7,172.91c1,2.54,1.77,4.44,2.3,5.68s1.2,2.61,2,4.09a13.44,13.44,0,0,0,2.11,3.14,15.17,15.17,0,0,0,2.3,1.87,7,7,0,0,0,3,1.19,26.67,26.67,0,0,0,3.89.24h1.91v2.54H222.78v-2.54h6a13,13,0,0,0,2.5-.24,13.79,13.79,0,0,0,2.79-.91,5.72,5.72,0,0,0,2.54-2.23,6.85,6.85,0,0,0,1-3.77,15.3,15.3,0,0,0-1.19-5.56L220.16,653H163.34l-30.51.55-6.67,15.66-7.31,21.93a19,19,0,0,0-1.28,6.68,8.25,8.25,0,0,0,3.38,7q3.38,2.5,9.34,2.5h8.9v2.54Zm43.62-62.45,29.17.79h53.71l-34.64-88.68A46.48,46.48,0,0,1,181.14,544h-1.59Z"/><path d="M277.09,712.42H220.28v-7.54h8.54a10.58,10.58,0,0,0,2-.19,11.57,11.57,0,0,0,2.25-.75,3.17,3.17,0,0,0,1.44-1.29,4.3,4.3,0,0,0,.6-2.42,12.77,12.77,0,0,0-1-4.64l-15.67-40.06H163.34l-28.84.52-6,14.08L121.22,692a16.84,16.84,0,0,0-1.15,5.89,5.77,5.77,0,0,0,2.37,5c1.8,1.33,4.44,2,7.85,2h11.4v7.54H89.33v-7.54h2.5a6.54,6.54,0,0,0,1.89-.33A15.75,15.75,0,0,0,97,702.93a18.84,18.84,0,0,0,4.58-4.42,47.42,47.42,0,0,0,5.19-8.44l11.73-23.79,58.46-134.71c3.54-8.15,4.44-11.84,4.57-13.5l.18-2.31h9.42l68.33,174.5c1,2.51,1.76,4.4,2.27,5.61s1.13,2.48,1.89,3.89a11.37,11.37,0,0,0,1.67,2.55,14.55,14.55,0,0,0,2,1.58,4.57,4.57,0,0,0,1.94.78,24.6,24.6,0,0,0,3.52.21h4.41Zm-40.18-5h26.66a16.53,16.53,0,0,1-1.83-1.57,16.08,16.08,0,0,1-2.54-3.73c-.83-1.54-1.53-3-2.09-4.29s-1.32-3.19-2.33-5.74L187.7,520.76h-1.57a77.23,77.23,0,0,1-4.6,12.8l-3.45,8h5.56V544a44.41,44.41,0,0,0,2.4,14.74l36,92h0l16.82,43a17.85,17.85,0,0,1,1.36,6.47,9.32,9.32,0,0,1-1.39,5.12A8.18,8.18,0,0,1,236.91,707.42Zm-137.7,0h21c-.27-.17-.53-.35-.79-.53a10.81,10.81,0,0,1-4.39-9,21.59,21.59,0,0,1,1.43-7.55l7.36-22,7.31-17.15,27.81-.5-27.27-.74L168,564.75,123,668.44l-11.76,23.84a50.9,50.9,0,0,1-5.77,9.35,23.37,23.37,0,0,1-5.91,5.59Zm40-62.35,25.49.69h50l-33.31-85.27a47.2,47.2,0,0,1-2.22-9.15Z"/><path d="M283.07,631.74v-1.23h2.61a5.86,5.86,0,0,0,4.18-1.44q1.53-1.44,2.43-5.77A63.1,63.1,0,0,0,293.2,611V547.65c0-1.1,0-2-.08-2.63a6.76,6.76,0,0,0-.38-1.8,3.29,3.29,0,0,0-.69-1.19,3.06,3.06,0,0,0-1.27-.61,8.53,8.53,0,0,0-1.84-.31c-.64,0-1.52-.06-2.65-.06h-3.22v-1.23h19.79l35.76,64.45q2.29,4.11,2.3,4.76h.77c-.11-.92-.16-2.71-.16-5.37V562.84q0-12-1.69-16.88T334,541.05h-6.44v-1.23h26.85v1.23h-2.61a6,6,0,0,0-4.5,1.59c-1,1.06-1.82,3.17-2.36,6.33a88.57,88.57,0,0,0-.81,13.87v70.74h-1.38c0-.61-1.23-3.07-3.68-7.36l-40.21-72c-.41-.69-.83-1.45-1.26-2.27s-.77-1.47-1-2a4.84,4.84,0,0,1-.34-.83h-.62c.1.92.16,2.77.16,5.53V611q0,10.71,1.68,15.1t5.83,4.39h2.61v1.23Z"/><path d="M346.64,636.08h-6.38v-2.25a53.8,53.8,0,0,0-3.35-6.37l-38.6-69.1V611c0,8.47.82,12.4,1.52,14.2.94,2.46,2.29,2.79,3.49,2.79h5.11v6.23H280.57V628h5.11a3.5,3.5,0,0,0,2.47-.76c.22-.21,1-1.15,1.7-4.46A62.26,62.26,0,0,0,290.7,611V547.65c0-1,0-1.84-.07-2.44a4.19,4.19,0,0,0-.24-1.12c0-.09-.06-.15-.08-.2l-.21-.07a6.18,6.18,0,0,0-1.31-.22c-.58,0-1.42-.05-2.5-.05h-5.72v-6.23h23.77L339,599.87v-37c0-7.66-.52-13.07-1.55-16.07-1-2.84-2.3-3.22-3.47-3.22h-8.94v-6.23h31.85v6.23h-5.11a3.66,3.66,0,0,0-2.71.84c-.24.24-1.06,1.32-1.69,5a87.4,87.4,0,0,0-.77,13.45Zm-53.77-6.84h3.42a11,11,0,0,1-1.13-2.22,20.26,20.26,0,0,1-.66-2.14A16.29,16.29,0,0,1,292.87,629.24Zm5.9-80.53.11.25c.22.47.53,1.08.94,1.85s.81,1.5,1.2,2.16l40.24,72,.38.67V611.53h-3.22v-2.21a37.39,37.39,0,0,0-2-3.82l-35.05-63.18h-6.32v0a9.43,9.43,0,0,1,.53,2.48c0,.52.07,1.14.08,1.86h3.08Zm42.1-6.39a13.09,13.09,0,0,1,1.34,2.83,18.31,18.31,0,0,1,.55,1.94,16.2,16.2,0,0,1,1.69-4.77Z"/><path d="M495.36,769.1v-1.28H500a14.35,14.35,0,0,0,2.74-.2,3.7,3.7,0,0,0,1.88-1,5.25,5.25,0,0,0,1.28-2,18.4,18.4,0,0,0,.72-3.7c.2-1.68.32-3.5.36-5.48s.06-4.59.06-7.87V694.88Q507,690,507,687c0-2-.16-3.8-.36-5.48a18.55,18.55,0,0,0-.72-3.7,5.32,5.32,0,0,0-1.28-2,3.77,3.77,0,0,0-1.88-1,15.22,15.22,0,0,0-2.74-.2h-4.64v-1.28h36.79a63.71,63.71,0,0,1,21.36,3.44A47.6,47.6,0,0,1,570,686.38a42.85,42.85,0,0,1,10.54,15.14,53,53,0,0,1,0,39.21A43.14,43.14,0,0,1,570,755.92a47.25,47.25,0,0,1-16.49,9.72,63.21,63.21,0,0,1-21.36,3.46Zm26.23-2.4h6.88q21.6,0,32.95-11.7t11.36-33.89a46.59,46.59,0,0,0-3.4-17.67A45.31,45.31,0,0,0,560.2,689a43.31,43.31,0,0,0-13.77-9.68,40.61,40.61,0,0,0-16.84-3.6H515.67v.16a7.14,7.14,0,0,1,1.74,2.62,10.69,10.69,0,0,1,.5,3.62V760.3Q517.91,766.71,521.59,766.7Z"/><path d="M532.15,771.6H492.86v-6.28H500a12.21,12.21,0,0,0,2.25-.15,1.23,1.23,0,0,0,.62-.38,2.67,2.67,0,0,0,.67-1.07,15.67,15.67,0,0,0,.59-3.15c.19-1.59.31-3.35.35-5.24s.06-4.58.06-7.82V694.88c0-3.24,0-5.88-.06-7.83s-.16-3.65-.35-5.23a15.86,15.86,0,0,0-.59-3.16,2.67,2.67,0,0,0-.67-1.07,1.13,1.13,0,0,0-.62-.37,11.86,11.86,0,0,0-2.25-.16h-7.14v-6.28h39.29a66.33,66.33,0,0,1,22.19,3.59,50,50,0,0,1,17.35,10.17,45.26,45.26,0,0,1,11.15,16,55.43,55.43,0,0,1,0,41.15,45.83,45.83,0,0,1-11.14,16.06A50.2,50.2,0,0,1,554.34,768,66,66,0,0,1,532.15,771.6Zm-24.44-5h9.1a11.84,11.84,0,0,1-1.4-6.3V682.08a8.34,8.34,0,0,0-.35-2.77,4.74,4.74,0,0,0-1.15-1.7l-.74-.73v-1.1h-5.46a8.13,8.13,0,0,1,.54,1.2,20.87,20.87,0,0,1,.85,4.25c.21,1.74.33,3.67.38,5.72s.06,4.65.06,7.93v52.63c0,3.27,0,5.94-.06,7.93s-.17,4-.38,5.72a20.6,20.6,0,0,1-.85,4.24A8.13,8.13,0,0,1,507.71,766.6ZM520,678.18a14.34,14.34,0,0,1,.46,3.9V760.3c0,.92.09,3.9,1.18,3.9h6.88c13.63,0,24.11-3.68,31.16-10.94s10.65-18.09,10.65-32.15a44.33,44.33,0,0,0-3.22-16.74,43.16,43.16,0,0,0-8.67-13.69,41,41,0,0,0-13-9.12,38.29,38.29,0,0,0-15.81-3.38Zm29.95,0A45.59,45.59,0,0,1,562,687.24a48.31,48.31,0,0,1,9.68,15.26,49.27,49.27,0,0,1,3.58,18.61c0,15.4-4.06,27.39-12.06,35.64a37.09,37.09,0,0,1-4.59,4,42.54,42.54,0,0,0,9.68-6.65,41,41,0,0,0,9.93-14.33,50.55,50.55,0,0,0,0-37.27,40.57,40.57,0,0,0-9.93-14.27,45.2,45.2,0,0,0-15.64-9.14C551.76,678.76,550.84,678.46,549.9,678.18Z"/><path d="M362.9,696.34v-1.73a6,6,0,0,0,1.78-.29,12.66,12.66,0,0,0,2.59-1.27,14.38,14.38,0,0,0,3.55-3.4,32,32,0,0,0,3.72-6l8-16.17L422.2,576q3-6.94,3.23-9.7h3.67L475,683.62c.68,1.72,1.21,3,1.57,3.85s.8,1.77,1.34,2.78a10,10,0,0,0,1.43,2.13,11.49,11.49,0,0,0,1.56,1.26,4.88,4.88,0,0,0,2,.81,17.75,17.75,0,0,0,2.64.16h1.29v1.73H451.74v-1.73h4.09a8.75,8.75,0,0,0,1.7-.16,9,9,0,0,0,1.89-.62,3.84,3.84,0,0,0,1.72-1.51,4.63,4.63,0,0,0,.67-2.56A10.27,10.27,0,0,0,461,686L450,657.74H411.41l-20.69.38-4.53,10.62-5,14.88a12.78,12.78,0,0,0-.86,4.53,5.61,5.61,0,0,0,2.29,4.77,10.44,10.44,0,0,0,6.33,1.69h6v1.73ZM392.49,654l19.79.54h36.44l-23.51-60.16a31.61,31.61,0,0,1-1.72-10.56h-1.08Z"/><path d="M489.38,698.84H449.24v-6.73h6.59a7.3,7.3,0,0,0,1.23-.11,7.5,7.5,0,0,0,1.36-.46A1.43,1.43,0,0,0,459,691a2.28,2.28,0,0,0,.27-1.21,7.9,7.9,0,0,0-.63-2.85l-10.43-26.67H411.41l-19,.35-3.85,9-4.93,14.78a10.61,10.61,0,0,0-.73,3.73,3.12,3.12,0,0,0,1.28,2.77,8.11,8.11,0,0,0,4.84,1.2h8.54v6.73H360.4v-6.73h2.5a3.78,3.78,0,0,0,1.05-.18,11,11,0,0,0,2-1,11.91,11.91,0,0,0,2.89-2.82,30.28,30.28,0,0,0,3.43-5.58l7.95-16.12L419.9,575c2.48-5.72,3-8,3-8.9l.18-2.31h7.68l46.55,118.89q1,2.53,1.53,3.78c.33.77.75,1.64,1.26,2.58a7.22,7.22,0,0,0,1,1.54,8.49,8.49,0,0,0,1.21,1,2.21,2.21,0,0,0,1,.4,16,16,0,0,0,2.28.13h3.79Zm-26.24-5h14.17a12.71,12.71,0,0,1-1.58-2.41c-.57-1.07-1.06-2.08-1.45-3s-.89-2.16-1.58-3.91L427.46,569a58.93,58.93,0,0,1-3,8l-1.85,4.27H426v2.5a29.24,29.24,0,0,0,1.58,9.73L452.38,657h0l11,28.07a12.8,12.8,0,0,1,1,4.68,7.11,7.11,0,0,1-1.06,3.91A1.63,1.63,0,0,0,463.14,693.84Zm-92.79,0H380a8.21,8.21,0,0,1-2.09-5.7,15.43,15.43,0,0,1,1-5.4l2.33-7-4.43,9a36,36,0,0,1-4,6.5A22.63,22.63,0,0,1,370.35,693.84Zm25.88-42.27,16.12.44h32.71l-22.17-56.75a31.49,31.49,0,0,1-1.07-3.71Z"/><path d="M696.08,618.16v-2.67a9.65,9.65,0,0,0,2.75-.45,19.67,19.67,0,0,0,4-2,22.22,22.22,0,0,0,5.49-5.24,51.39,51.39,0,0,0,5.75-9.32l12.31-25,61.25-141.13q4.65-10.74,5-15h5.66l70.9,181.08c1.05,2.66,1.86,4.65,2.41,6s1.25,2.73,2.08,4.28a14.41,14.41,0,0,0,2.21,3.29,16.78,16.78,0,0,0,2.41,2,7.37,7.37,0,0,0,3.12,1.24,27.63,27.63,0,0,0,4.08.25h2v2.67H833.22v-2.67h6.32a13.45,13.45,0,0,0,2.62-.25,13.83,13.83,0,0,0,2.92-1,6,6,0,0,0,2.66-2.33,7.21,7.21,0,0,0,1-4,16,16,0,0,0-1.25-5.82l-17.06-43.61H771l-32,.59-7,16.39-7.66,23a20.1,20.1,0,0,0-1.33,7,8.63,8.63,0,0,0,3.54,7.36q3.54,2.63,9.78,2.62h9.32v2.67Zm45.69-65.41,30.54.83h56.25l-36.28-92.87a48.65,48.65,0,0,1-2.67-16.31H788Z"/><path d="M890,620.66H830.72V613h8.82a11.86,11.86,0,0,0,2.15-.2,12,12,0,0,0,2.39-.79,3.62,3.62,0,0,0,1.56-1.39,4.76,4.76,0,0,0,.64-2.61,13.59,13.59,0,0,0-1.07-4.9l-16.44-42H771l-30.29.56-6.31,14.81-7.62,22.87a17.69,17.69,0,0,0-1.21,6.2,6.13,6.13,0,0,0,2.53,5.35c1.9,1.42,4.69,2.13,8.29,2.13h11.82v7.67h-54.6V613h2.5a7,7,0,0,0,2-.34,16.46,16.46,0,0,0,3.44-1.71,19.93,19.93,0,0,0,4.83-4.66,48.59,48.59,0,0,0,5.45-8.87L724.1,572.5l61.22-141.07c3.72-8.56,4.66-12.44,4.8-14.18l.18-2.31H800L871.5,597.61c1,2.62,1.84,4.6,2.38,5.88s1.19,2.59,2,4.08a11.85,11.85,0,0,0,1.76,2.7,14.23,14.23,0,0,0,2.06,1.66,4.8,4.8,0,0,0,2.08.84,25.55,25.55,0,0,0,3.71.22H890Zm-42.31-5H876.3a18.74,18.74,0,0,1-2.2-1.85,16.82,16.82,0,0,1-2.64-3.88c-.87-1.62-1.6-3.13-2.18-4.49s-1.38-3.33-2.44-6l-70.28-179.5h-1.82a79,79,0,0,1-4.83,13.48l-61.3,141.24-12.31,25a53.89,53.89,0,0,1-6,9.78,24.54,24.54,0,0,1-6.16,5.82c-.25.16-.5.3-.74.44h22.89a13.21,13.21,0,0,1-1.17-.78,11.2,11.2,0,0,1-4.55-9.37,22.54,22.54,0,0,1,1.49-7.87l7.7-23.07,7.63-17.88,34.71-.62-34-.92L786.3,441.9h5.81v2.5a46.43,46.43,0,0,0,2.53,15.49l37.58,96.19h0l17.68,45.19a18.49,18.49,0,0,1,1.42,6.73,9.61,9.61,0,0,1-1.44,5.31A8.74,8.74,0,0,1,847.67,615.66ZM745.51,550.35l26.86.73H824.9L790,461.62a49.23,49.23,0,0,1-2.37-10Z"/></g></g></svg>