<svg xmlns="http://www.w3.org/2000/svg" width="22.476" height="15.733" viewBox="0 0 22.476 15.733">
  <path id="cloud-upload-solid" d="M18.879,38.834a3.375,3.375,0,0,0-3.147-4.586,3.354,3.354,0,0,0-1.872.569,5.619,5.619,0,0,0-10.49,2.8c0,.095,0,.19.007.284a5.058,5.058,0,0,0,1.679,9.83H17.98a4.495,4.495,0,0,0,.9-8.9Zm-4.913,2.237-.379.379a.846.846,0,0,1-1.212-.018l-1.138-1.212v4.421a.841.841,0,0,1-.843.843H9.833a.841.841,0,0,1-.843-.843V40.221L7.852,41.433a.843.843,0,0,1-1.212.018l-.379-.379a.839.839,0,0,1,0-1.191l3.255-3.255a.839.839,0,0,1,1.191,0l3.255,3.255A.843.843,0,0,1,13.966,41.071Z" transform="translate(0 -32)" fill="#11801a"/>
</svg>
