<svg xmlns="http://www.w3.org/2000/svg" viewBox="0 0 2947.27 2886.73"><defs><style>.cls-1{fill:#def2fd;}.cls-2{fill:#005a96;}.cls-3{fill:#fff;}.cls-4{fill:#010101;}.cls-5{fill:#6dcff6;}</style></defs><g id="Layer_70" data-name="Layer 70"><g id="Registration"><path class="cls-1" d="M348.76,1741.25c217.11-240-192-687.15-90.26-1010.2,136.93-434.9,1250.89-807.77,2000.67-334.3,627.91,396.5,845.94,1289,571.63,1649.74-82.11,108-184.27,136.68-318.46,249.6-124.81,105-138.87,131.84-147.87,150.12"/><ellipse class="cls-2" cx="2203.08" cy="760.97" rx="159.57" ry="160.49"/><path class="cls-3" d="M2311.19,752.39l-108.39,111a14.78,14.78,0,0,1-21,.19l-76.25-75.29a15,15,0,0,1-.19-21.1l108.39-111a14.77,14.77,0,0,1,21-.19L2311,731.29A15,15,0,0,1,2311.19,752.39Z"/><path class="cls-4" d="M2192.2,873.46a20.18,20.18,0,0,1-14.29-5.88l-76.25-75.29a20.58,20.58,0,0,1-.27-28.95l108.4-111a20.24,20.24,0,0,1,14.39-6.14,20,20,0,0,1,14.48,5.88l76.25,75.29a20.57,20.57,0,0,1,.26,28.95l-108.39,111a20.2,20.2,0,0,1-14.38,6.15Zm32.16-216.17h-.08a9.12,9.12,0,0,0-6.52,2.79l-108.4,111a9.41,9.41,0,0,0,.12,13.25l76.25,75.29a9.86,9.86,0,0,0,6.56,2.66,9.15,9.15,0,0,0,6.52-2.78l108.4-111a9.41,9.41,0,0,0-.12-13.25L2230.84,660A9.12,9.12,0,0,0,2224.36,657.29Z"/><path class="cls-4" d="M2143.92,784.28a5.57,5.57,0,0,1-1.19-11l69.19-15.15A5.57,5.57,0,0,1,2214.3,769l-69.19,15.14A5.42,5.42,0,0,1,2143.92,784.28Z"/><path class="cls-4" d="M2213.4,768.85a5.74,5.74,0,0,1-1.08-.11,5.56,5.56,0,0,1-4.38-6.54l13.78-69.85a5.56,5.56,0,0,1,10.92,2.15l-13.78,69.85A5.57,5.57,0,0,1,2213.4,768.85Z"/><path class="cls-3" d="M2458.5,1101.27H84.9c-52.39,0-87.21,41.59-77.78,92.9L300.17,2788c9.43,51.31,59.55,92.9,111.94,92.9h2373.6c52.39,0,87.21-41.59,77.78-92.9l-293-1593.79C2561,1142.86,2510.89,1101.27,2458.5,1101.27Z"/><path class="cls-4" d="M2785.71,2886.43H412.11c-54.87,0-107.54-43.72-117.42-97.46L1.65,1195.18c-4.86-26.4,1.1-51.3,16.78-70.12S57.8,1095.7,84.9,1095.7H2458.5c54.87,0,107.54,43.72,117.42,97.46L2869,2787c4.86,26.4-1.11,51.3-16.78,70.13S2812.8,2886.43,2785.71,2886.43ZM84.9,1106.83c-23.73,0-44.3,9-57.91,25.35s-18.64,37.9-14.39,61L305.64,2787c9,48.72,56.72,88.35,106.47,88.35h2373.6c23.73,0,44.3-9,57.91-25.35s18.64-37.89,14.39-61L2565,1195.18c-9-48.72-56.72-88.35-106.47-88.35Z"/><path class="cls-5" d="M414.77,2828.85c-31.53,0-61.77-25-67.41-55.65L59.17,1205.79c-5.64-30.68,15.42-55.64,47-55.64H2455.26c31.53,0,61.77,25,67.41,55.64L2810.86,2773.2c5.65,30.68-15.41,55.65-47,55.65Z"/><path class="cls-3" d="M2133.45,1710.58H1606.22c-45.69,0-75.92,37-67.52,82.73h0c8.4,45.69,52.25,82.73,97.94,82.73h527.23c45.69,0,75.92-37,67.52-82.73h0C2223,1747.62,2179.14,1710.58,2133.45,1710.58Z"/><polygon class="cls-1" points="2362.18 2141.25 1535.86 2141.25 1513.37 2018.95 2339.69 2018.95 2362.18 2141.25"/><polygon class="cls-1" points="2398.7 2339.87 1572.38 2339.87 1549.89 2217.57 2376.21 2217.57 2398.7 2339.87"/><path class="cls-3" d="M1847,1603.74H1235.14c-58.92,0-115.65-47.9-126.47-106.77L923.56,490.26c-5.38-29.28,1.14-56.78,18.35-77.44,16.83-20.21,41.88-31.34,70.54-31.34h611.88c58.91,0,115.65,47.9,126.47,106.77L1935.9,1495c5.39,29.28-1.13,56.78-18.34,77.44C1900.73,1592.61,1875.68,1603.74,1847,1603.74ZM1012.45,392.61c-25.3,0-47.31,9.71-62,27.33-15.06,18.08-20.72,42.34-16,68.31L1119.62,1495c9.9,53.84,61.72,97.65,115.52,97.65H1847c25.29,0,47.31-9.71,62-27.33,15-18.08,20.72-42.34,15.94-68.3L1739.85,490.26c-9.9-53.84-61.72-97.65-115.52-97.65Z"/><path class="cls-2" d="M1847,1603.74h-25.09a5.57,5.57,0,0,1,0-11.13H1847c25.29,0,47.31-9.71,62-27.33,15-18.08,20.72-42.34,15.94-68.3l-44.67-243a5.57,5.57,0,0,1,11-2l44.66,243c5.39,29.28-1.13,56.78-18.34,77.44C1900.73,1592.61,1875.68,1603.74,1847,1603.74Z"/><path class="cls-2" d="M1841.17,1016.12a5.56,5.56,0,0,1-5.47-4.56l-95.85-521.3c-9.9-53.84-61.72-97.65-115.52-97.65H1012.45c-25.3,0-47.31,9.71-62,27.33-15.06,18.08-20.72,42.34-16,68.31l46.23,251.39a5.57,5.57,0,1,1-11,2l-46.23-251.4c-5.38-29.28,1.14-56.78,18.35-77.44,16.83-20.21,41.88-31.34,70.54-31.34h611.88c58.91,0,115.65,47.9,126.47,106.77l95.85,521.29a5.57,5.57,0,0,1-4.47,6.49A5.83,5.83,0,0,1,1841.17,1016.12Z"/><path class="cls-3" d="M1182.21,703.71c-19.79-107.63,51.34-194.88,158.88-194.88s210.76,87.25,230.55,194.88-51.34,194.88-158.88,194.88S1202,811.34,1182.21,703.71Z"/><path class="cls-1" d="M1412.76,904.16c-109.93,0-215.81-89.47-236-199.44a191.54,191.54,0,0,1-.53-68.86,5.56,5.56,0,1,1,11,2,180.41,180.41,0,0,0,.53,64.87C1207,807.65,1308,893,1412.76,893c49.68,0,93-19.13,121.91-53.86,29.7-35.65,40.88-83.4,31.49-134.44C1546.87,599.78,1445.9,514.4,1341.09,514.4c-56.5,0-104.85,25-132.67,68.58a5.56,5.56,0,0,1-9.38-6c29.9-46.85,81.67-73.72,142-73.72,109.92,0,215.8,89.47,236,199.43,10,54.36-2,105.35-33.89,143.58C1512.14,883.6,1465.81,904.16,1412.76,904.16Z"/><path class="cls-1" d="M1350.39,575.51s-41.09-29.62-76.48,32.31c-31.24,54.65,30.64,103.63,19.13,137.65s-68.37,52.59-68.37,52.59,26.42,38.66,53.5,55.68h254.22s42-57.23,39-73.47c0,0-57-3.09-69.79-51.81s3.06-79.13-55.19-134.17C1386.12,537.29,1350.39,575.51,1350.39,575.51Z"/><path class="cls-5" d="M1269.41,845.44c40.92,32.93,91.62,53.15,143.35,53.15s95-20.22,123.8-53.15a489.68,489.68,0,0,0-137.17-19.54c-47.92,0-91.94,7-130,19.54Z"/><path class="cls-1" d="M1412.76,904.16c-51.11,0-103.26-19.32-146.84-54.39a5.57,5.57,0,0,1,1.75-9.62c40-13.15,84.31-19.82,131.72-19.82a492.8,492.8,0,0,1,138.73,19.76,5.57,5.57,0,0,1,2.63,9C1509.68,884.6,1464.23,904.16,1412.76,904.16Zm-131.48-56.6C1321.09,877,1367.4,893,1412.76,893c44.93,0,84.88-15.8,113.52-44.71a482.54,482.54,0,0,0-126.89-16.84C1357.15,831.47,1317.47,836.88,1281.28,847.56Z"/><path class="cls-3" d="M1406.61,858.84h0c-17,0-33.27-13.78-36.39-30.76l-28.84-156.85h61.46l28.84,156.85c3.12,17-8.1,30.76-25.07,30.76Z"/><path class="cls-1" d="M1406.61,864.4c-19.5,0-38.28-15.84-41.87-35.32L1335.9,672.24a5.56,5.56,0,0,1,5.48-6.57h61.46a5.57,5.57,0,0,1,5.48,4.55l28.84,156.85c1.83,10-.43,19.39-6.36,26.51S1416.4,864.4,1406.61,864.4Zm-58.55-187.6,27.63,150.27c2.66,14.44,16.53,26.2,30.92,26.2,6.42,0,12-2.42,15.63-6.82s5.19-10.7,4-17.37l-28-152.28Z"/><path class="cls-3" d="M1393.06,780.27c34.57,0,57.43-28,51.07-62.64l-6.79-36.89c-6.14-33.44-38.22-60.55-71.62-60.55H1301L1319,717.63c4.66,25.35,23.72,47.18,47.17,57Z"/><path class="cls-1" d="M1393.06,785.84a5.57,5.57,0,1,1,0-11.13c14.83,0,27.71-5.67,36.29-16,8.81-10.58,12.11-24.83,9.3-40.11l-6.78-36.89c-5.67-30.87-35.35-56-66.15-56h-58l16.71,90.87c4.17,22.69,21.38,43.46,43.85,52.91A5.56,5.56,0,0,1,1364,779.8c-25.84-10.86-45.66-34.87-50.5-61.16l-17.91-97.44a5.56,5.56,0,0,1,5.48-6.57h64.68c35.91,0,70.5,29.2,77.1,65.1l6.78,36.89c3.42,18.6-.74,36.09-11.7,49.26C1427.18,778.75,1411.25,785.84,1393.06,785.84Z"/><path class="cls-1" d="M1367.91,622.51,1315,683.6l-11.66-63.4s64.85,3.86,64.56,2.31Z"/><path class="cls-1" d="M1696.88,1250.1H1211.14c-11.19,0-21.94-9.07-24-20.27v0c-2.06-11.19,5.35-20.27,16.55-20.27h485.73c11.2,0,21.94,9.08,24,20.27v0C1715.48,1241,1708.08,1250.1,1696.88,1250.1Z"/><path class="cls-1" d="M1799.21,1356.27H1226.94c-11.2,0-21.94-9.08-24-20.27v0c-2-11.2,5.35-20.27,16.55-20.27h572.27c11.2,0,21.94,9.07,24,20.27v0C1817.81,1347.19,1810.4,1356.27,1799.21,1356.27Z"/><path class="cls-5" d="M1589.67,1060.57H1340.91c-16.55,0-32.43-13.42-35.47-30v0c-3-16.54,7.91-30,24.45-30h248.77c16.55,0,32.43,13.42,35.47,30v0C1617.17,1047.15,1606.22,1060.57,1589.67,1060.57Z"/><path class="cls-2" d="M1126.64,1436.8H405.05c-68.95,0-135.35-56.06-148-125L39.17,127C33.33,95.15,39.65,64.67,57,41.14,73.52,18.69,98.84,4.38,128.26.86,132.89.31,742.38.05,864.51,0c69,0,135.35,56.06,148,125l217.85,1184.86c6.29,34.19-1.31,66.3-21.39,90.41C1189.35,1423.81,1160.11,1436.8,1126.64,1436.8ZM864.51,11.13c-7.24,0-724.2.29-735.21.81-26.06,3.13-48.66,15.85-63.36,35.81-15.49,21-21.1,48.44-15.81,77.21L268,1309.82h0c11.74,63.87,73.23,115.84,137.07,115.84h721.59c30.1,0,56.31-11.56,73.79-32.55,17.93-21.53,24.68-50.39,19-81.28L1001.58,127C989.83,63.1,928.35,11.13,864.51,11.13Z"/><path class="cls-2" d="M173.29,831.21a5.57,5.57,0,0,1-5.47-4.56L39.17,127C33.33,95.15,39.65,64.67,57,41.14,73.52,18.69,98.84,4.38,128.26.86,132.89.31,742.38.05,864.51,0c69,0,135.35,56.06,148,125l42.65,232a5.57,5.57,0,1,1-11,2l-42.65-232C989.83,63.1,928.35,11.13,864.51,11.13c-7.24,0-724.2.29-735.21.81-26.06,3.13-48.66,15.85-63.36,35.81-15.49,21-21.1,48.44-15.81,77.21L178.77,824.63a5.55,5.55,0,0,1-4.47,6.48A5,5,0,0,1,173.29,831.21Z"/><path class="cls-3" d="M805.39,1436.8H514.67a5.57,5.57,0,1,1,0-11.14H805.39a5.57,5.57,0,1,1,0,11.14Z"/><path class="cls-5" d="M758,786.36H560.13c-13.15,0-25.78-10.66-28.2-23.82h0c-2.41-13.15,6.29-23.82,19.45-23.82H749.27c13.16,0,25.78,10.67,28.2,23.82h0C779.89,775.7,771.19,786.36,758,786.36Z"/><path class="cls-5" d="M1019.51,917H346.71c-13.15,0-25.78-10.67-28.2-23.83h0c-2.42-13.15,6.29-23.82,19.44-23.82h672.8c13.15,0,25.78,10.67,28.2,23.82h0C1041.37,906.37,1032.66,917,1019.51,917Z"/><path class="cls-5" d="M1036.37,1008.75H363.57c-13.15,0-25.78-10.66-28.2-23.82h0c-2.41-13.16,6.29-23.82,19.45-23.82h672.79c13.16,0,25.78,10.66,28.2,23.82h0C1058.23,998.09,1049.53,1008.75,1036.37,1008.75Z"/><path class="cls-5" d="M434.55,529.64c48.21,38.77,107.93,62.57,168.87,62.57s111.91-23.8,145.86-62.57a577.48,577.48,0,0,0-161.59-23c-56.45,0-108.32,8.28-153.14,23Z"/><path class="cls-5" d="M642.07,374.63l8.27-72.17c3.12-27.31-13.16-56.71-40-72.14a73.72,73.72,0,0,0-36.54-10.2H501.46c-16.16,0-30.6,6.11-40.42,17.11l-3.29,3.69c-15.6,17.46-17.19,44.47-4.05,68.62l35.94,66Z"/><path class="cls-3" d="M546.33,254H466.2L488,372.72c4.51,24.55,18.92,46.38,42.31,60.54l12,65.36c4.75,25.85,29.53,46.8,55.38,46.8s42.92-20.95,38.17-46.8L624.22,435A68.62,68.62,0,0,0,644,372.72l-8.37-45.5C628,286,587.56,254,546.33,254Z"/><path class="cls-1" d="M596.18,551c-28.35,0-55.66-23-60.87-51.35L523.4,434.87a5.57,5.57,0,0,1,11-2l11.91,64.77c4.28,23.28,26.67,42.23,49.91,42.23,10.67,0,19.93-4.06,26.07-11.43,6.31-7.57,8.67-17.8,6.65-28.79l-11.42-62.09a5.57,5.57,0,0,1,11-2l11.41,62.09c2.63,14.3-.58,27.77-9,37.93C622.51,545.5,610.22,551,596.18,551Z"/><path class="cls-5" d="M579.77,455.54a5.57,5.57,0,0,1,0-11.13c18.72,0,35-7.17,45.82-20.17,11.12-13.35,15.29-31.29,11.75-50.51L629,328.23c-7.11-38.66-44.31-70.11-82.92-70.11H472.9l20.89,113.59c5.22,28.42,26.77,54.42,54.9,66.23a5.57,5.57,0,0,1-4.32,10.26c-31.49-13.23-55.64-42.46-61.53-74.47l-22.1-120.17a5.58,5.58,0,0,1,5.48-6.58h79.84c43.73,0,85.84,35.55,93.87,79.24l8.37,45.49c4.14,22.54-.89,43.72-14.16,59.65C621.16,447,601.85,455.54,579.77,455.54Z"/><path class="cls-5" d="M593.35,249.69,483.46,330.75l-14.38-78.2s124.62-1,124.27-2.86Z"/><path class="cls-1" d="M603.18,597.6c-58.16,0-118.29-21.51-169-61.21-111.42-87.14-145.2-236-75.32-331.75,66.71-91.44,205.38-102.79,315.7-25.83a5.57,5.57,0,0,1-6.37,9.13c-105.31-73.46-237.23-63.25-300.33,23.26-66.39,91-33.56,232.94,73.18,316.42,57.64,45.07,127.67,65.79,192.16,56.8,50.23-7,93.31-32,121.31-70.36,34.68-47.55,43.59-111.67,24.45-175.93A5.57,5.57,0,0,1,789.58,335c20.14,67.62,10.62,135.29-26.13,185.67-29.79,40.83-75.52,67.41-128.77,74.82A227.83,227.83,0,0,1,603.18,597.6Z"/><path class="cls-3" d="M1243.15,2606.31c12.53,68.14-25.86,123.38-85.74,123.38H507.56c-59.89,0-118.59-55.24-131.12-123.38L144.32,1343.86c-12.53-68.13,25.87-123.37,85.75-123.37H879.92c59.88,0,118.58,55.24,131.11,123.37Z"/><path class="cls-4" d="M1157.41,2735.25H507.56c-62.34,0-123.62-57.39-136.59-127.93L138.85,1344.87c-6.9-37.5,1-73.2,21.58-97.94,17.19-20.64,41.92-32,69.64-32H879.92c62.35,0,123.62,57.39,136.59,127.94l126.43,687.63a5.57,5.57,0,1,1-11,2l-126.44-687.63c-12-65.52-68.4-118.81-125.63-118.81H230.07c-24.35,0-46,9.94-61.08,28-18.49,22.2-25.49,54.57-19.19,88.8L381.92,2605.31c12.05,65.51,68.41,118.81,125.64,118.81h649.85c24.35,0,46-9.94,61.08-28,18.49-22.2,25.48-54.56,19.19-88.8L1161,2190a5.57,5.57,0,1,1,11-2l76.73,417.29c6.89,37.49-1,73.19-21.59,97.94C1209.85,2723.89,1185.12,2735.25,1157.41,2735.25Z"/><path class="cls-5" d="M767.27,1920.56H588.67c-11.87,0-23.27-9.63-25.45-21.5h0c-2.18-11.87,5.67-21.5,17.54-21.5h178.6c11.87,0,23.27,9.63,25.45,21.5h0C787,1910.93,779.14,1920.56,767.27,1920.56Z"/><path class="cls-1" d="M1004.76,2046.72H397.57c-11.87,0-23.26-9.62-25.45-21.49h0c-2.18-11.88,5.68-21.5,17.55-21.5H996.85c11.87,0,23.27,9.62,25.45,21.5h0C1024.49,2037.1,1016.63,2046.72,1004.76,2046.72Z"/><path class="cls-1" d="M1022,2140.46H414.81c-11.87,0-23.27-9.63-25.45-21.5h0c-2.18-11.88,5.67-21.5,17.54-21.5h607.19c11.87,0,23.26,9.62,25.45,21.5h0C1041.72,2130.83,1033.86,2140.46,1022,2140.46Z"/><path class="cls-1" d="M969.48,2423.19H465.23c-11.87,0-23.26-9.63-25.45-21.5h0c-2.18-11.87,5.68-21.5,17.55-21.5H961.57c11.87,0,23.27,9.63,25.45,21.5h0C989.2,2413.56,981.35,2423.19,969.48,2423.19Z"/><path class="cls-1" d="M1089.65,2516.92H482.47c-11.87,0-23.27-9.62-25.45-21.5h0c-2.19-11.87,5.67-21.49,17.54-21.49h607.19c11.87,0,23.26,9.62,25.45,21.49h0C1109.38,2507.3,1101.52,2516.92,1089.65,2516.92Z"/><path class="cls-1" d="M871.38,2603.37h-373c-11.87,0-23.26-9.63-25.45-21.5h0c-2.18-11.87,5.67-21.5,17.55-21.5h373c11.87,0,23.27,9.63,25.45,21.5h0C891.1,2593.74,883.25,2603.37,871.38,2603.37Z"/><path class="cls-1" d="M838.48,2234.19H432c-11.87,0-23.26-9.63-25.45-21.5h0c-2.18-11.87,5.67-21.5,17.55-21.5H830.57c11.88,0,23.27,9.63,25.45,21.5h0C858.21,2224.56,850.35,2234.19,838.48,2234.19Z"/><path class="cls-1" d="M1056.46,2327.92H449.28c-11.88,0-23.27-9.63-25.45-21.5h0c-2.19-11.87,5.67-21.5,17.54-21.5h607.18c11.88,0,23.27,9.63,25.45,21.5h0C1076.19,2318.29,1068.33,2327.92,1056.46,2327.92Z"/><path class="cls-4" d="M556.5,1649.93c-41.17,0-78.89-38.57-76.3-78.52,4.26-65.64,24.51-150.45,99.36-162.43,78-12.49,139.42,85.47,174.34,160.24,18.92,40.51-4.35,80.71-46.45,80.71Z"/><path class="cls-2" d="M644.67,1779.42c59.13-1.45,96.56-14.26,131.94-54.65-52.35-15.34-76.94-16-135.77-16s-94,3-140.69,18.29C500.15,1727,566.31,1781.34,644.67,1779.42Z"/><path class="cls-4" d="M499.11,1732.85a5.57,5.57,0,0,1-1.5-10.93c44.24-12.43,92.43-18.74,143.24-18.74a610,610,0,0,1,135.65,15.26A5.57,5.57,0,0,1,774,1729.3a598.75,598.75,0,0,0-133.18-15c-49.79,0-97,6.16-140.23,18.32A5.61,5.61,0,0,1,499.11,1732.85Z"/><path class="cls-3" d="M649.92,1750.36h0c-20.84,0-40.84-16.89-44.67-37.73l-41.53-225.87h75.46l41.53,225.87c3.83,20.84-10,37.73-30.79,37.73Z"/><path class="cls-4" d="M649.92,1755.93c-23.36,0-45.86-19-50.15-42.29l-41.53-225.87a5.56,5.56,0,0,1,5.48-6.57h75.46a5.55,5.55,0,0,1,5.47,4.56l41.53,225.87c2.18,11.85-.49,23-7.52,31.47C671.76,1751.37,661.56,1755.93,649.92,1755.93Zm-79.52-263.6,40.32,219.3c3.37,18.29,20.95,33.17,39.2,33.17,8.27,0,15.44-3.14,20.18-8.83,4.88-5.85,6.7-13.79,5.13-22.33l-40.69-221.31Z"/><path class="cls-3" d="M596.59,1613.65c-26.68-12.09-48.62-38.87-54.33-70l-7.38-40.11c-8.06-43.86,18.14-79.41,58.53-79.41,37.77,0,74.5,33.25,82.05,74.27l8.32,45.25c7.8,42.44-17.56,76.84-56.63,76.84Z"/><path class="cls-4" d="M627.15,1626.09a5.57,5.57,0,1,1,0-11.13c15.91,0,30-6.35,39.55-17.87,11-13.27,15.28-32.37,11.6-52.4L670,1499.43c-7.07-38.43-41.42-69.7-76.57-69.7-16.5,0-31.07,6.58-41,18.53-11.46,13.76-15.85,33.55-12,54.3l7.37,40.12c5.2,28.31,25.29,54.18,51.16,65.9a5.57,5.57,0,0,1-4.59,10.14c-29.1-13.18-51.68-42.24-57.52-74l-7.37-40.12c-4.42-24,.84-47.13,14.42-63.44,12.11-14.53,29.71-22.54,49.58-22.54,40.27,0,79.53,35.36,87.52,78.83l8.32,45.26c4.28,23.28-.82,45.71-14,61.54C663.5,1618.32,646.42,1626.09,627.15,1626.09Z"/><path class="cls-4" d="M530.38,1482h147s-8.28-29-38.16-48.45c-25.42-16.51-55.58-18.09-78.86-6.7-15.78,7.72-31,21.62-29.73,46.41Z"/><path class="cls-4" d="M616.63,1576.82h0a32.51,32.51,0,0,1-23.93-10.36,5.56,5.56,0,0,1,8.12-7.61,21.48,21.48,0,0,0,15.81,6.84h0a21.46,21.46,0,0,0,15.82-6.85,5.57,5.57,0,0,1,8.12,7.63A32.57,32.57,0,0,1,616.63,1576.82Z"/><path class="cls-4" d="M645.85,1784.34c-63.82,0-132.07-28.09-184.24-81.9-48.7-50.24-75.58-115-73.76-177.73,1.45-49.45,21-93.94,55.19-125.29,80.16-73.6,218.92-57.59,309.32,35.67,30,31,52.14,67.92,64,106.86a5.57,5.57,0,1,1-10.66,3.24c-11.31-37.26-32.51-72.65-61.3-102.35-86.24-89-218-104.77-293.8-35.22-31.91,29.3-50.23,71-51.59,117.42-1.74,59.72,24,121.55,70.63,169.65,86.25,89,218,104.77,293.8,35.22,32.56-29.9,50.9-72.53,51.64-120a5.57,5.57,0,0,1,5.57-5.48h.08a5.56,5.56,0,0,1,5.48,5.65c-.79,50.59-20.41,96.07-55.24,128.06C737,1769.24,692.63,1784.34,645.85,1784.34Z"/><path class="cls-2" d="M1683.36,2080.1a23.51,23.51,0,1,1-23.51-23.5A23.52,23.52,0,0,1,1683.36,2080.1Z"/><path class="cls-2" d="M1772.42,2080.1a23.5,23.5,0,1,1-23.5-23.5A23.51,23.51,0,0,1,1772.42,2080.1Z"/><path class="cls-2" d="M1861.49,2080.1a23.51,23.51,0,1,1-23.5-23.5A23.51,23.51,0,0,1,1861.49,2080.1Z"/><path class="cls-2" d="M1950.56,2080.1a23.51,23.51,0,1,1-23.51-23.5A23.51,23.51,0,0,1,1950.56,2080.1Z"/><path class="cls-2" d="M1727.89,2277.18a23.51,23.51,0,1,1-23.5-23.5A23.51,23.51,0,0,1,1727.89,2277.18Z"/><circle class="cls-2" cx="1793.45" cy="2277.18" r="23.5" transform="translate(-742.6 3680.92) rotate(-80.74)"/><path class="cls-2" d="M1906,2277.18a23.5,23.5,0,1,1-23.5-23.5A23.51,23.51,0,0,1,1906,2277.18Z"/><path class="cls-2" d="M1995.09,2277.18a23.51,23.51,0,1,1-23.5-23.5A23.51,23.51,0,0,1,1995.09,2277.18Z"/><path class="cls-1" d="M1345.42,2637.71S1187.53,2291.64,1278.1,1843c0,0,244.7,205,156.48,794.72Z"/><path class="cls-4" d="M1434.59,2643.28h-89.17a5.56,5.56,0,0,1-5.07-3.26c-.39-.87-40.06-88.75-68-230.35-25.78-130.6-46.66-335.12.31-567.78a5.56,5.56,0,0,1,9-3.16c2.55,2.13,62.83,53.59,112.92,178.42,46,114.67,91.26,315.55,45.5,621.39A5.57,5.57,0,0,1,1434.59,2643.28Zm-85.53-11.13h80.72c44.21-300.69-.26-498.06-45.52-610.85-39.14-97.54-85.29-149.9-102.66-167.34-44,226.61-23.59,425.51,1.58,553.19C1307.87,2532.4,1341.75,2615.12,1349.06,2632.15Z"/><path class="cls-3" d="M1384,2607.2h-.31a5.56,5.56,0,0,1-5.25-5.86c12.08-221.14-87.65-693.29-88.66-698a5.56,5.56,0,1,1,10.88-2.32c1,4.76,101.06,478.34,88.9,700.95A5.58,5.58,0,0,1,1384,2607.2Z"/><path class="cls-3" d="M1504.26,2075.06s-203.43,367.53-81.06,526.57h65.45S1619.47,2314.33,1504.26,2075.06Z"/><path class="cls-4" d="M1488.65,2607.2H1423.2a5.56,5.56,0,0,1-4.41-2.18c-51.93-67.48-54-177.84-6.25-328,35.32-111,86.34-203.73,86.85-204.65a5.39,5.39,0,0,1,5-2.87,5.59,5.59,0,0,1,4.86,3.15c60.15,125,52.7,262.78,35.86,356.42-18.22,101.24-51.09,174.15-51.42,174.88A5.58,5.58,0,0,1,1488.65,2607.2ZM1426,2596.06h59c13.58-31.89,117.23-290,18.93-508.52C1473.28,2146.44,1321.42,2455,1426,2596.06Z"/><path class="cls-4" d="M1453.76,2616.93a5.57,5.57,0,0,1-5.56-5.35c-5.89-151.8,50-533.5,50.55-537.33a5.57,5.57,0,0,1,11,1.62c-.57,3.83-56.3,384.51-50.44,535.28a5.57,5.57,0,0,1-5.35,5.78Z"/><path class="cls-3" d="M1115.88,2212.07s173.29,59.12,236,409.16h-68.16S1141.52,2429,1115.88,2212.07Z"/><path class="cls-4" d="M1351.92,2626.79h-68.16a5.56,5.56,0,0,1-4.48-2.25c-1.43-1.94-143.42-195.93-168.93-411.82a5.57,5.57,0,0,1,7.33-5.92c1.82.62,45.32,15.94,96.88,74.92,47.15,53.94,110.2,156.45,142.84,338.52a5.56,5.56,0,0,1-5.48,6.55Zm-65.32-11.13h58.65c-54.26-292.94-187.54-377.13-222.61-394.52C1149.15,2417.75,1271,2593.84,1286.6,2615.66Z"/><path class="cls-4" d="M1314.66,2616.93a5.55,5.55,0,0,1-5.48-4.66c-25.75-155.59-137.25-312.45-138.37-314a5.56,5.56,0,0,1,9-6.49c1.14,1.59,114.13,160.5,140.31,318.7a5.57,5.57,0,0,1-4.58,6.4A5.79,5.79,0,0,1,1314.66,2616.93Z"/><path class="cls-2" d="M1182.73,2593.44h427.53l9.59,202.23a87,87,0,0,1-86.85,91.06H1288.83a106.27,106.27,0,0,1-106.27-106.37Z"/><path class="cls-4" d="M2208.22,1538.18a5.56,5.56,0,0,1-5.56-5.45l-.43-19.74a5.57,5.57,0,0,1,5.45-5.68h.12a5.57,5.57,0,0,1,5.57,5.44l.42,19.74a5.56,5.56,0,0,1-5.45,5.68Z"/><path class="cls-4" d="M2209.7,1607.25a5.57,5.57,0,0,1-5.56-5.44l-.42-19.74a5.57,5.57,0,0,1,5.44-5.69h.13a5.56,5.56,0,0,1,5.56,5.45l.42,19.74a5.56,5.56,0,0,1-5.44,5.68Z"/><path class="cls-4" d="M2165,1563.19a5.57,5.57,0,0,1,0-11.13l19.45-.16h0a5.57,5.57,0,0,1,0,11.14l-19.45.15Z"/><path class="cls-4" d="M2233.07,1562.65a5.57,5.57,0,0,1-.05-11.13l19.45-.15a5.57,5.57,0,1,1,.09,11.13l-19.45.15Z"/><path class="cls-4" d="M2184.44,2674a5.57,5.57,0,0,1-3.93-9.5l396-396a5.56,5.56,0,0,1,7.87,7.87l-396,396A5.54,5.54,0,0,1,2184.44,2674Z"/><path class="cls-4" d="M2021.51,2707.71a5.57,5.57,0,0,1-3.93-9.5l221.64-221.64a5.56,5.56,0,0,1,7.87,7.87l-221.64,221.64A5.54,5.54,0,0,1,2021.51,2707.71Z"/><path class="cls-4" d="M1673.11,261a25.33,25.33,0,1,1,25.33-25.32A25.35,25.35,0,0,1,1673.11,261Zm0-39.51a14.19,14.19,0,1,0,14.19,14.19A14.2,14.2,0,0,0,1673.11,221.47Z"/><path class="cls-4" d="M2645.29,952.22a56.55,56.55,0,0,1,0-113.09,5.57,5.57,0,1,1,0,11.14,45.41,45.41,0,1,0,45.41,45.41,5.57,5.57,0,1,1,11.13,0A56.61,56.61,0,0,1,2645.29,952.22Z"/><path class="cls-4" d="M1118.5,340.53a5.56,5.56,0,0,1,.37-10.28L1391.26,228.9a5.56,5.56,0,1,1,3.88,10.43L1122.75,340.68A5.52,5.52,0,0,1,1118.5,340.53Z"/><path class="cls-4" d="M2651.62,1437.11a5.48,5.48,0,0,1-4.23-.45,5.55,5.55,0,0,1-2.22-7.55L2800,1145.32a5.57,5.57,0,0,1,9.78,5.33l-154.82,283.79A5.54,5.54,0,0,1,2651.62,1437.11Z"/></g></g></svg>