<svg id="Layer_1" data-name="Layer 1" xmlns="http://www.w3.org/2000/svg" viewBox="0 0 635.46 491.18"><defs><style>.cls-1{fill:#001e33;}</style></defs><path class="cls-1" d="M484.8,89.42l-59.65,21.71A80,80,0,0,0,421.86,69c-13.81-37.93-52.2-58.91-85.59-46.76-29.18,10.62-45.73,27.29-66.29,129C188.86,86.57,165.47,84.44,136.32,95,102.88,107.22,87,148,100.78,185.9a79.26,79.26,0,0,0,24.58,34.34L61.18,243.6C10.51,262-13.7,323.31,14,399.31S105.12,522,155.78,503.53L282.66,424l27.42,75.36a16.27,16.27,0,0,0,27.11,5.62L381.63,458l64.21,7.41a17.44,17.44,0,0,0,7.42-.9A16.27,16.27,0,0,0,463,443.66l-27.29-75L579.4,349.34c53.13-19.34,73.8-96.66,46.15-172.63S537.93,70.08,484.8,89.42ZM271.27,392.67,141.93,473.79c-29.12,7.72-75.44-25.31-97.39-85.61-19.66-54-8.24-100.89,27.77-114l137.6-50.08Zm-96-190.6c-16.54,6-36.24-6.18-43.92-27.3s-.44-43.13,16.09-49.15c13.43-4.88,26.29-9.35,100.82,49.89ZM423.39,430l-46.13-5.33a16.32,16.32,0,0,0-13.68,5l-31.92,33.74L240.49,213l91.74-33.39ZM302.28,155.85c19-93.28,31.74-98.13,45.16-103,16.46-6,36.17,6.26,43.84,27.33s.44,43.13-16.09,49.15ZM571,317.66,424.31,337.4l-61.5-168.95L495.93,120c39.27-14.3,79.07,13,99,67.84C615.52,244.32,604.51,302.65,571,317.66Z" transform="translate(-2.36 -18.82)"/></svg>