<svg id="Layer_1" data-name="Layer 1" xmlns="http://www.w3.org/2000/svg" viewBox="0 0 512 512"><defs><style>.cls-1{fill:#001e33;}</style></defs><path class="cls-1" d="M496,192a16,16,0,0,0-16,16V464a16,16,0,0,1-16,16H48a16,16,0,0,1-16-16V208a16,16,0,0,0-32,0V464a48,48,0,0,0,48,48H464c26.51,0,48-21.49,48-47.1V208A16,16,0,0,0,496,192ZM64.88,276.3a16.26,16.26,0,0,0,1,2.9,15.64,15.64,0,0,0,1.61,2.39,15.27,15.27,0,0,0,2.26,2.49c.3.25.44.6.76.83l132.8,97.72A93.59,93.59,0,0,0,256,399.1a88,88,0,0,0,52.7-17.4L441.5,284c.32-.23.46-.59.76-.84a15.27,15.27,0,0,0,2.26-2.49,14.86,14.86,0,0,0,1.61-2.38,15.1,15.1,0,0,0,1-2.83,15.64,15.64,0,0,0,.64-3.17c0,.53.22.13.22-.27V48A48,48,0,0,0,400,0H112A48.05,48.05,0,0,0,64,48V272c0,.41.2.76.23,1.16A14.1,14.1,0,0,0,64.88,276.3ZM96,48a16,16,0,0,1,16-16H400a16,16,0,0,1,16,16V263.9L289.7,356.82a57.35,57.35,0,0,1-67.45,0L96,263.9ZM352,239.1a16,16,0,0,0-16-16H176a16,16,0,0,0-16,16c0,8.84,7.16,15.1,16,15.1H336C344.8,255.1,352,248.8,352,239.1Zm-176-80H336c8.84,0,16-7.16,16-15.1,0-8.84-7.16-15.1-16-15.1H176c-8.84,0-16,7.16-16,15.1C160,152.8,167.2,159.1,176,159.1Z"/></svg>