<svg xmlns="http://www.w3.org/2000/svg" viewBox="0 0 2465.57 2459.95"><defs><style>.cls-1{fill:#def2fd;}.cls-2{fill:#005a96;}.cls-3{fill:#6dcff6;}.cls-4{fill:#010101;}.cls-5{fill:#fff;}</style></defs><g id="Layer_70" data-name="Layer 70"><g id="Send_your_CV" data-name="Send your CV"><path class="cls-1" d="M1193,24.12C1027.2,51.69,420.27,146.41,136.73,710.28c-273.63,544.19-124.56,1307.5,340,1607.9,745.54,482.12,1989.51-388.37,1978.57-779.54C2446.4,1221.48,2148.89,1296.07,2117,1098c-50.38-313.19,386.21-482.34,345.91-715.31C2416.43,113.82,1745.64-67.76,1193,24.12Z"/><rect class="cls-2" x="101.33" y="420.84" width="2277.84" height="1685.01" rx="95.55"/><rect class="cls-3" x="68.62" y="420.84" width="2277.84" height="1685.01" rx="32.13"/><rect class="cls-1" x="192.33" y="525.3" width="2027.36" height="1372.35" rx="22.69"/><path class="cls-4" d="M69.64,905.81a4.46,4.46,0,0,1-4.46-4.46v-385a100.12,100.12,0,0,1,100-100l394.3-2.71h0a4.46,4.46,0,0,1,0,8.92L165.22,425.3A91.2,91.2,0,0,0,74.1,516.39v385A4.46,4.46,0,0,1,69.64,905.81Z"/><path class="cls-4" d="M165.2,2110.31a100.13,100.13,0,0,1-100-100V1317.68a4.46,4.46,0,1,1,8.92,0V2010.3a91.19,91.19,0,0,0,91.09,91.08l31.68,0h0a4.46,4.46,0,1,1,0,8.92Z"/><path class="cls-4" d="M581.83,2109.82a4.46,4.46,0,0,1,0-8.92l1372.9-1.59h0a4.46,4.46,0,0,1,0,8.92l-1372.9,1.59Z"/><path class="cls-4" d="M2351.22,1949.63a4.47,4.47,0,0,1-4.46-4.45L2343,516.4a91.19,91.19,0,0,0-91.08-91.1l-303.66.26h0a4.46,4.46,0,0,1,0-8.92l303.66-.26a100.13,100.13,0,0,1,100,100l3.74,1428.76a4.47,4.47,0,0,1-4.45,4.48Z"/><path class="cls-4" d="M1744.4,528.1h-640a4.46,4.46,0,0,1,0-8.92h640a4.46,4.46,0,0,1,0,8.92Z"/><path class="cls-4" d="M537.22,1900.45a4.46,4.46,0,0,1,0-8.92l1360-.39a4.46,4.46,0,1,1,0,8.92Z"/><path class="cls-4" d="M2218.39,1620.53h0a4.47,4.47,0,0,1-4.46-4.47l1.3-1025a63.08,63.08,0,0,0-63-63l-187.51,3a4.35,4.35,0,0,1-4.54-4.39,4.46,4.46,0,0,1,4.39-4.53l187.59-3a72,72,0,0,1,72,71.93l-1.29,1025A4.47,4.47,0,0,1,2218.39,1620.53Z"/><path class="cls-5" d="M1862.35,1789.61l-1193.94-.54c-30.4,0-55-25.27-55-56.4V128.25c0-31.14,24.64-56.36,55-56.35l1193.94.54c30.39,0,55,25.26,55,56.39V1733.26C1917.39,1764.39,1892.74,1789.62,1862.35,1789.61Z"/><path class="cls-1" d="M1341.45,766.55l-424.36-.31c-9.92,0-18-13.51-18-30.16h0c0-16.64,8-30.13,18-30.12l424.36.31c9.92,0,18,13.51,18,30.15h0C1359.42,753.07,1351.37,766.55,1341.45,766.55Z"/><path class="cls-1" d="M1794.06,399.08l-588.93-.38c-11.52,0-20.85-13.51-20.85-30.15h0c0-16.65,9.33-30.13,20.85-30.13l588.93.38c11.52,0,20.86,13.5,20.86,30.15h0C1814.92,385.59,1805.58,399.08,1794.06,399.08Z"/><path class="cls-1" d="M1796.22,269.84l-588.93-.37c-11.52,0-20.86-13.51-20.86-30.15h0c0-16.65,9.34-30.14,20.86-30.13l588.93.37c11.52,0,20.85,13.51,20.85,30.16h0C1817.07,256.36,1807.74,269.85,1796.22,269.84Z"/><path class="cls-1" d="M1792.46,535.86l-588.93-.38c-11.52,0-20.86-13.5-20.86-30.15h0c0-16.64,9.34-30.13,20.86-30.12l588.93.37c11.52,0,20.86,13.51,20.86,30.15h0C1813.32,522.38,1804,535.86,1792.46,535.86Z"/><path class="cls-1" d="M1775.16,1053.28l-848.59-.37a30.11,30.11,0,0,1-30.05-30.15h0a30.08,30.08,0,0,1,30.05-30.13l848.59.37a30.11,30.11,0,0,1,30,30.16h0A30.07,30.07,0,0,1,1775.16,1053.28Z"/><ellipse class="cls-1" cx="778.32" cy="1020.6" rx="36.41" ry="36.51" transform="translate(-74.52 61.39) rotate(-4.31)"/><path class="cls-1" d="M1777.77,923.05l-848.6-.38a30.1,30.1,0,0,1-30-30.15h0a30.07,30.07,0,0,1,30-30.12l848.6.37a30.12,30.12,0,0,1,30,30.15h0A30.08,30.08,0,0,1,1777.77,923.05Z"/><ellipse class="cls-1" cx="781.43" cy="891.36" rx="36.41" ry="36.51" transform="translate(-64.79 61.26) rotate(-4.31)"/><path class="cls-1" d="M1772.85,1190.06l-848.59-.37a30.11,30.11,0,0,1-30-30.15h0a30.08,30.08,0,0,1,30-30.13l848.59.38a30.11,30.11,0,0,1,30.06,30.15h0A30.08,30.08,0,0,1,1772.85,1190.06Z"/><ellipse class="cls-1" cx="776.01" cy="1157.38" rx="36.41" ry="36.51" transform="translate(-83.63 60.68) rotate(-4.25)"/><path class="cls-1" d="M1770.54,1324.52,922,1324.14A30.1,30.1,0,0,1,891.9,1294h0A30.07,30.07,0,0,1,922,1263.87l848.59.37a30.12,30.12,0,0,1,30.06,30.15h0A30.08,30.08,0,0,1,1770.54,1324.52Z"/><ellipse class="cls-1" cx="773.7" cy="1291.83" rx="36.41" ry="36.51" transform="matrix(1, -0.07, 0.07, 1, -94.62, 61.61)"/><path class="cls-1" d="M1768.23,1468.25l-848.6-.37a30.12,30.12,0,0,1-30-30.15h0a30.08,30.08,0,0,1,30-30.13l848.6.37a30.11,30.11,0,0,1,30,30.16h0A30.07,30.07,0,0,1,1768.23,1468.25Z"/><ellipse class="cls-1" cx="771.39" cy="1435.57" rx="36.41" ry="36.51" transform="translate(-105.33 61.79) rotate(-4.29)"/><path class="cls-1" d="M1765.92,1605l-848.6-.37a30.12,30.12,0,0,1-30.05-30.15h0a30.08,30.08,0,0,1,30.05-30.13l848.6.38a30.1,30.1,0,0,1,30,30.15h0A30.07,30.07,0,0,1,1765.92,1605Z"/><ellipse class="cls-1" cx="769.08" cy="1572.35" rx="36.41" ry="36.51" transform="translate(-116.02 62.26) rotate(-4.31)"/><path class="cls-4" d="M1862.37,1794.07h0l-1111-2.07a4.47,4.47,0,0,1,0-8.93h0l1111,2.07h0a49.51,49.51,0,0,0,35.69-15.17,52.39,52.39,0,0,0,14.86-36.81V1237a4.46,4.46,0,1,1,8.92,0v496.12a61.27,61.27,0,0,1-17.39,43A58.41,58.41,0,0,1,1862.37,1794.07Z"/><path class="cls-4" d="M1917.39,973.88a4.46,4.46,0,0,1-4.46-4.46V126c0-28.68-22.69-52-50.59-52L668.4,73.39h0a49.55,49.55,0,0,0-35.7,15.17,52.4,52.4,0,0,0-14.85,36.81l-4.78,764.11a4.46,4.46,0,0,1-4.46,4.43h0a4.45,4.45,0,0,1-4.43-4.49l4.78-764.08a61.26,61.26,0,0,1,17.38-43,58.41,58.41,0,0,1,42.09-17.86h0L1862.35,65c32.81,0,59.5,27.36,59.5,61V969.42A4.46,4.46,0,0,1,1917.39,973.88Z"/><path class="cls-1" d="M2117.53,2069.29S2001.26,1814.42,2068,1484c0,0,180.21,151,115.24,585.26Z"/><path class="cls-4" d="M2183.2,2073.75h-65.67a4.44,4.44,0,0,1-4.05-2.61c-.3-.64-29.53-65.4-50.12-169.72-19-96.21-34.38-246.88.22-418.27a4.46,4.46,0,0,1,7.24-2.54c1.88,1.57,46.34,39.53,83.26,131.54,33.9,84.49,67.24,232.49,33.53,457.8A4.46,4.46,0,0,1,2183.2,2073.75Zm-62.75-8.92h58.9c32.41-220.75-.13-365.74-33.27-448.66-28.45-71.19-62.15-109.94-75.32-123.31-32.24,166.53-17.21,312.68,1.29,406.54C2090.13,1991.1,2114.88,2051.83,2120.45,2064.83Z"/><path class="cls-5" d="M2146,2047.18h-.25a4.46,4.46,0,0,1-4.21-4.7c8.9-162.81-64.54-510.46-65.28-514a4.46,4.46,0,1,1,8.72-1.85c.75,3.5,74.43,352.31,65.47,516.3A4.46,4.46,0,0,1,2146,2047.18Z"/><path class="cls-5" d="M2234.51,1654.93s-149.81,270.66-59.7,387.79H2223S2319.35,1831.14,2234.51,1654.93Z"/><path class="cls-4" d="M2223,2047.18h-48.2a4.48,4.48,0,0,1-3.54-1.74c-38.32-49.8-39.89-131.19-4.66-241.89,26-81.78,63.61-150.1,64-150.78a4.28,4.28,0,0,1,4-2.3,4.47,4.47,0,0,1,3.89,2.52c44.34,92.1,38.86,193.69,26.44,262.7-13.42,74.61-37.65,128.34-37.89,128.87A4.47,4.47,0,0,1,2223,2047.18Zm-46-8.93h43.05c10.33-24.34,85.73-213.16,14.16-373.3C2210.94,1709.85,2100.76,1935,2177,2038.25Z"/><path class="cls-4" d="M2197.32,2054.35a4.48,4.48,0,0,1-4.46-4.29c-4.34-111.82,36.82-393,37.24-395.78a4.46,4.46,0,0,1,8.82,1.3c-.41,2.82-41.45,283.13-37.14,394.13a4.45,4.45,0,0,1-4.28,4.63Z"/><path class="cls-5" d="M1948.49,1755.83s127.62,43.54,173.83,301.32h-50.2S1967.37,1915.58,1948.49,1755.83Z"/><path class="cls-4" d="M2122.32,2061.61h-50.2a4.45,4.45,0,0,1-3.58-1.81c-1.06-1.42-105.68-144.36-124.48-303.45a4.46,4.46,0,0,1,5.87-4.74c1.35.46,33.47,11.77,71.5,55.28,34.76,39.75,81.23,115.3,105.28,249.47a4.46,4.46,0,0,1-4.39,5.25Zm-47.91-8.92H2117c-39.68-213.66-136.43-276.15-163-289.56C1973.55,1907.15,2062.54,2036,2074.41,2052.69Z"/><path class="cls-4" d="M2094.88,2054.35a4.46,4.46,0,0,1-4.4-3.74c-18.94-114.5-101-230-101.83-231.1a4.46,4.46,0,0,1,7.25-5.2c.84,1.17,84.09,118.26,103.38,234.85a4.46,4.46,0,0,1-4.4,5.19Z"/><path class="cls-2" d="M1997.73,2036.69h314.84l7.06,148.92a64,64,0,0,1-64,67.06H2075.86a78.26,78.26,0,0,1-78.26-78.33Z"/><path class="cls-4" d="M1033.5,2416.52a1018.43,1018.43,0,0,1-349.22-61.13,4.46,4.46,0,1,1,3-8.38c261.34,94.9,561.36,76.52,823.12-50.41a4.46,4.46,0,0,1,3.89,8c-130.84,63.44-269.09,100.32-410.91,109.59Q1068.32,2416.52,1033.5,2416.52Z"/><path class="cls-4" d="M1023.8,2360.37a958.33,958.33,0,0,1-225.22-26.75,4.46,4.46,0,1,1,2.09-8.67c194.35,46.93,399.14,31.31,592.24-45.16a4.46,4.46,0,0,1,3.29,8.3C1274.86,2336.14,1148.92,2360.37,1023.8,2360.37Z"/><path class="cls-4" d="M1442.24,2282.32a21,21,0,1,1,3.08-.22A21.58,21.58,0,0,1,1442.24,2282.32Zm0-33.2a11.88,11.88,0,0,0-1.79.13,12.14,12.14,0,1,0,3.53,24,12.14,12.14,0,0,0-1.74-24.15Z"/><path class="cls-4" d="M1554.56,2311.89a4.49,4.49,0,0,1-3.6-1.83l-40-54.68a4.46,4.46,0,0,1,3.45-7.09l66.63-2.33a4.45,4.45,0,0,1,4.28,6.17c-.12.29-12.32,29.53-26.84,57.36a4.48,4.48,0,0,1-3.62,2.39Zm-31.39-55,30.73,42c8.91-17.61,16.58-34.85,20.48-43.84Z"/><path class="cls-4" d="M2337.36,261a4.41,4.41,0,0,1-2.56-.81,990.26,990.26,0,0,0-170.59-95.81,4.46,4.46,0,1,1,3.59-8.17,998.76,998.76,0,0,1,172.12,96.68,4.46,4.46,0,0,1-2.56,8.11Z"/><path class="cls-4" d="M2116.65,144.58a4.59,4.59,0,0,1-1.58-.29c-14.57-5.52-29.5-10.8-44.38-15.69a4.46,4.46,0,1,1,2.78-8.48c15,4.94,30.07,10.26,44.76,15.82a4.47,4.47,0,0,1-1.58,8.64Z"/><path class="cls-4" d="M2329.59,329.13a4.44,4.44,0,0,1-2.67-.89C2225,252,2107.6,198.45,1977.85,169a4.46,4.46,0,1,1,2-8.7c131,29.7,249.55,83.79,352.43,160.77a4.46,4.46,0,0,1-2.67,8Z"/><path class="cls-4" d="M346.89,263.26a4.46,4.46,0,0,1-4.46-4.46V235.73a4.46,4.46,0,0,1,8.92,0V258.8A4.46,4.46,0,0,1,346.89,263.26Z"/><path class="cls-4" d="M346.89,317a4.46,4.46,0,0,1-4.46-4.46V289.47a4.46,4.46,0,1,1,8.92,0v23.07A4.46,4.46,0,0,1,346.89,317Z"/><path class="cls-4" d="M331.56,278.59H308.49a4.46,4.46,0,0,1,0-8.92h23.07a4.46,4.46,0,0,1,0,8.92Z"/><path class="cls-4" d="M385.3,278.59H362.23a4.46,4.46,0,0,1,0-8.92H385.3a4.46,4.46,0,0,1,0,8.92Z"/><path class="cls-4" d="M433.87,247.4a24.41,24.41,0,0,1-8.87-1.68,24.77,24.77,0,0,1-13.86-13.42,25.43,25.43,0,0,1,12.69-33.2h0a24.29,24.29,0,0,1,18.89-.49A24.82,24.82,0,0,1,456.58,212a25.43,25.43,0,0,1-12.7,33.2A24.38,24.38,0,0,1,433.87,247.4Zm-6.38-40.16a16.46,16.46,0,0,0-8.16,21.52,16,16,0,0,0,8.9,8.65,15.43,15.43,0,0,0,12-.31,16.49,16.49,0,0,0,8.16-21.53,15.94,15.94,0,0,0-8.91-8.64,15.4,15.4,0,0,0-12,.31Z"/><path class="cls-5" d="M1074.51,562.61c-112.37,112.38-294.57,112.38-407,0s-112.38-294.58,0-407,294.58-112.38,407,0S1186.89,450.23,1074.51,562.61Zm-18.17-388.77C954,71.5,788.08,71.5,685.74,173.84s-102.34,268.25,0,370.59,268.26,102.34,370.6,0S1158.67,276.17,1056.34,173.84Z"/><path class="cls-4" d="M871,650a290.92,290.92,0,0,0,205.78-496.67c-113.47-113.48-298.1-113.47-411.57,0A290.89,290.89,0,0,0,871,650ZM1072.2,560.3c-110.92,110.92-291.41,110.93-402.33,0a284.48,284.48,0,0,1,0-402.33C780.79,47,961.28,47,1072.2,158a284.48,284.48,0,0,1,0,402.33ZM871,624.33a265.11,265.11,0,1,0-187.61-77.59A264.53,264.53,0,0,0,871,624.33Zm0-524a258.79,258.79,0,0,1,183,441.77C953.12,643,789,643,688.05,542.12A258.79,258.79,0,0,1,871,100.35Z"/><path class="cls-5" d="M358.59,866.69l4.4,4.4a27.17,27.17,0,0,0,38.44,0l276.5-276.5-42.84-42.84-276.5,276.5A27.17,27.17,0,0,0,358.59,866.69Z"/><path class="cls-4" d="M382.21,882.32a30.26,30.26,0,0,0,21.53-8.92l276.5-276.5a3.28,3.28,0,0,0,0-4.62L637.4,549.44a3.28,3.28,0,0,0-4.62,0L356.28,826a30.43,30.43,0,0,0,0,43l4.4,4.4A30.26,30.26,0,0,0,382.21,882.32Zm291.1-287.73L399.12,868.78a23.93,23.93,0,0,1-33.82,0l-4.4-4.4a23.93,23.93,0,0,1,0-33.82L635.09,556.37Z"/><path class="cls-5" d="M515.08,736.68l23.13-23.12Z"/><path class="cls-4" d="M515.08,740a3.23,3.23,0,0,0,2.31-1l23.13-23.12a3.27,3.27,0,1,0-4.62-4.62l-23.13,23.12a3.27,3.27,0,0,0,2.31,5.58Z"/><path class="cls-5" d="M397.15,810.45l-26,26a15.62,15.62,0,0,0,22.09,22.09l91.28-91.28Z"/><path class="cls-4" d="M382.21,866.35a18.83,18.83,0,0,0,13.35-5.52l91.28-91.28a3.27,3.27,0,0,0-4.62-4.62l-91.28,91.28a12.35,12.35,0,0,1-17.47-17.47l26-26a3.27,3.27,0,0,0-4.62-4.62l-26,26a18.88,18.88,0,0,0,13.35,32.23Z"/><rect class="cls-5" x="571.75" y="586.69" width="90.84" height="51.64" rx="7.57" transform="translate(620.48 1482.02) rotate(-135)"/><path class="cls-4" d="M631,659.31a19.68,19.68,0,0,0,14-5.77l13.21-13.21a19.77,19.77,0,0,0,0-27.93l-40.93-40.93a19.77,19.77,0,0,0-27.93,0l-13.21,13.21a19.77,19.77,0,0,0,0,27.93l40.93,40.93A19.69,19.69,0,0,0,631,659.31Zm-27.72-87.08a13.2,13.2,0,0,1,9.34,3.86L653.59,617a13.24,13.24,0,0,1,0,18.69l-13.21,13.21a13.22,13.22,0,0,1-18.69,0L580.76,608a13.24,13.24,0,0,1,0-18.69L594,576.09A13.2,13.2,0,0,1,603.32,572.23Z"/><rect class="cls-5" x="526.29" y="632.14" width="90.84" height="51.64" rx="7.57" transform="translate(510.73 1527.48) rotate(-135)"/><path class="cls-4" d="M585.58,704.77a19.68,19.68,0,0,0,14-5.77l13.21-13.21a19.77,19.77,0,0,0,0-27.93l-40.93-40.93a19.77,19.77,0,0,0-27.93,0l-13.21,13.21a19.76,19.76,0,0,0,0,27.93L571.61,699A19.69,19.69,0,0,0,585.58,704.77Zm-27.72-87.08a13.2,13.2,0,0,1,9.34,3.86l40.93,40.93a13.24,13.24,0,0,1,0,18.69l-13.21,13.21a13.22,13.22,0,0,1-18.69,0L535.3,653.45a13.22,13.22,0,0,1,0-18.69l13.21-13.21A13.2,13.2,0,0,1,557.86,617.69Z"/><path class="cls-4" d="M972.07,153.58a3.27,3.27,0,0,0,1.42-6.21,234.24,234.24,0,0,0-66.25-20.54,3.27,3.27,0,0,0-1,6.46,227.83,227.83,0,0,1,64.4,20A3.28,3.28,0,0,0,972.07,153.58Z"/><path class="cls-4" d="M871.31,594.53a233.68,233.68,0,0,0,166.33-68.89c91.72-91.72,91.72-240.95,0-332.66a3.27,3.27,0,1,0-4.62,4.62c89.17,89.17,89.17,234.25,0,323.42A228.72,228.72,0,0,1,646.81,403a3.27,3.27,0,0,0-6.42,1.24,235.27,235.27,0,0,0,230.92,190.3Z"/><path class="cls-2" d="M1032.06,301.75a12.61,12.61,0,0,1-8.29,11.92L877.73,366a32.6,32.6,0,0,1-21.92,0l-98.48-35.23a52.77,52.77,0,0,1,27.28-16.48l84.15-21a8.26,8.26,0,1,0-4-16l-84.13,21.05a71.39,71.39,0,0,0-39.9,26.56l-31-11.11a12.73,12.73,0,0,1,0-23.86l146-52.28a32.48,32.48,0,0,1,21.92,0l146,52.28A12.59,12.59,0,0,1,1032.06,301.75ZM882.82,381.51a44.44,44.44,0,0,1-16.07,2.89,48.81,48.81,0,0,1-16.53-2.87l-75-26.83-7.65,73.77c0,21.34,44,38.59,99.19,38.59,54.29,0,99.19-17.25,99.19-38.57l-7.64-73.83Z"/><path class="cls-3" d="M868.76,293.22l-84.15,21A55.05,55.05,0,0,0,744.46,355,15.6,15.6,0,0,1,751,367.87a16.29,16.29,0,0,1-6.17,12.59l12.83,77a8.28,8.28,0,0,1-8.16,9.63H719.46a8.26,8.26,0,0,1-8.15-9.62l12.82-77A17,17,0,0,1,718,367.87a16.53,16.53,0,0,1,10.09-15.22,71.47,71.47,0,0,1,52.54-54.4l84.15-21a8.25,8.25,0,1,1,4,16Z"/></g></g></svg>