<svg id="Layer_1" data-name="Layer 1" xmlns="http://www.w3.org/2000/svg" viewBox="0 0 512.01 512"><defs><style>.cls-1{fill:#001e33;}</style></defs><path class="cls-1" d="M481.2,0c-.76,0-1.51,0-2.28.08C361.4,8.51-10,62.86,77.13,412.3L4.69,484.64a16,16,0,1,0,22.62,22.67l72.34-72.44c36.08,9,69.12,13.12,99.19,13.12,261.1,0,305.5-309.5,313.1-414.9C513.2,15,498.1,0,481.2,0ZM198.8,416c-22.71,0-47.21-3.24-72.21-8l56.22-56.22c.49,0,.79.23,1.19.23H360.6C317,394.3,263,416,198.8,416Zm189-95.2a17.18,17.18,0,0,0-3.8-.8H214.6l64.23-64.23c.47,0,.77.23,1.17.23H426.2c-1.52,3.29-2.8,6.65-4.4,9.9A348.25,348.25,0,0,1,387.8,320.8ZM439.6,224H311.5l36.69-36.69a16,16,0,0,0-22.62-22.62L105,385.29C87.12,301.7,98.13,231.5,137.7,176.1,220.3,62.2,403.6,36.8,479.9,31.2,476.7,75.25,467.1,150.8,439.6,224Z" transform="translate(0)"/></svg>