<svg id="Layer_1" data-name="Layer 1" xmlns="http://www.w3.org/2000/svg" viewBox="0 0 408.01 504"><defs><style>.cls-1{fill:#001e33;}</style></defs><path class="cls-1" d="M406.4,327.8a15.91,15.91,0,0,0-22.63,0c-75,74.9-196.56,74.9-271.56,0s-74.9-196.6,0-271.56a15.91,15.91,0,0,0,0-22.63L91.31,12.69a16,16,0,1,0-22.6,22.62l10,10c-76.4,88-72.8,221.38,10.9,305.08a223,223,0,0,0,142.4,65V480H120a16,16,0,1,0,0,32H376a16,16,0,0,0,0-32H264V415.4a222.44,222.44,0,0,0,130.68-54.1l10,10a16,16,0,1,0,22.62-22.6ZM88,191.1A160.34,160.34,0,0,0,248.91,352c87.5,0,160-71.6,160-160.9,0-87.5-72.5-160-160-160C159.61,31.1,88,103.6,88,191.1Zm160.9-128c69.8,0,128,58.2,128,128,0,71.6-58.2,128.9-128,128.9A128.38,128.38,0,0,1,120,191.1C120,121.3,177.31,63.1,248.91,63.1Z" transform="translate(-24 -8)"/></svg>