<svg id="Layer_1" data-name="Layer 1" xmlns="http://www.w3.org/2000/svg" viewBox="0 0 625.49 445.32"><defs><style>.cls-1{fill:#001e33;}</style></defs><path class="cls-1" d="M622.2,311.87,445.41,103.15a30.89,30.89,0,0,0-17.9-10.36L158.36,44.07c-12.67-2.33-25,3.33-31,13.68a30.47,30.47,0,0,0,3.22,34.38l15.5,19.53L95.26,199.74l-87,93.89a14.32,14.32,0,0,0,3.38,22.2L61.45,344.6a14.38,14.38,0,0,0,20.93-8.16l38.74-123.95,44.79-77.57L307,301.52a30.73,30.73,0,0,0,8.06,6.67,31.49,31.49,0,0,0,9.89,3.66L594,360.56c12.71,2.39,25-3.28,31.8-15S630.56,321.68,622.2,311.87ZM42.05,299.24l33.13-35.65L60.68,310Zm286.89-16.3L211.74,144.56,391,185.22a14.39,14.39,0,1,0,6.39-28.06L180.82,108,151.91,72.84l271.55,48.9,177,210.1ZM448.6,368.85a14.39,14.39,0,0,0-18.81,7.8l-30.11,72.58c-3.1,7.45-11.57,11.66-21.57,10.74a328.69,328.69,0,0,1-126.34-38.74l-2.63-1.51c-38.41-23.45-71.94-54.66-97-90.23-5.79-8.21-6.38-17.64-1.5-24l47.83-62.34a14.4,14.4,0,0,0-2.65-20.19,14.25,14.25,0,0,0-20.15,2.67L127.83,288c-12.71,16.58-12.41,39.41.79,58.12a358.84,358.84,0,0,0,105.81,98.35l3.23,1.86c42.94,23.4,90.6,38,137.78,42.3,22.8,2.06,42.72-9.09,50.75-28.4l30.11-72.6A14.27,14.27,0,0,0,448.6,368.85Z" transform="translate(-4.4 -43.55)"/></svg>