<svg id="Layer_1" data-name="Layer 1" xmlns="http://www.w3.org/2000/svg" viewBox="0 0 640 383.99"><defs><style>.cls-1,.cls-2{fill:#001e33;}.cls-2{isolation:isolate;opacity:0.4;}</style></defs><path class="cls-1" d="M318.6,203.4,279,236.8a48,48,0,0,1-67.64-5.66c-17.16-21-14.56-50.44,5.64-67.54L327.3,72.7,280.9,64a218.62,218.62,0,0,0-152.7,63.9l-32.2.4V351.9l50.25-.09,90.5,81.82a64,64,0,0,0,90-9.25l18.12,15.24a37.33,37.33,0,0,0,52.38-5.37l31.38-38.6,5.37,4.5a32.11,32.11,0,0,0,45-4.75l9.54-11.78a32,32,0,0,0-4.69-44.93Zm225.4-75V352c0,17.6,14.25,32.05,31.1,32.05L640,384V128.5ZM592,352a16,16,0,1,1,16-16A16.11,16.11,0,0,1,592,352Z" transform="translate(0 -64)"/><path class="cls-2" d="M480,128.2c-41-40.93-64.6-64.12-122.6-64.12-10.49,0-19.93-.61-30.2,8.57L217,163.6c-20.2,17.1-22.8,46.5-5.6,67.6A48,48,0,0,0,279,236.86l39.57-33.46,165.3,135.3a31.34,31.34,0,0,1,9.08,13l51-.64V128.4ZM0,383.9l64,0a31.94,31.94,0,0,0,32-32V128.3H0Zm48-63.8a16,16,0,1,1-16,16A16,16,0,0,1,48,320.1Z" transform="translate(0 -64)"/></svg>