<svg id="Layer_1" data-name="Layer 1" xmlns="http://www.w3.org/2000/svg" viewBox="0 0 640 383.97"><defs><style>.cls-1,.cls-2{fill:#6ac5f1;}.cls-2{isolation:isolate;opacity:0.4;}</style></defs><path class="cls-1" d="M318.6,139.4,279,172.8a48,48,0,0,1-67.64-5.66c-17.16-21-14.56-50.44,5.64-67.54L327.3,8.7,280.9,0A218.62,218.62,0,0,0,128.2,63.9L96,64.3V287.9l50.25-.09,90.5,81.82a64,64,0,0,0,90-9.25l18.12,15.24a37.32,37.32,0,0,0,52.38-5.37l31.38-38.6,5.37,4.5a32.11,32.11,0,0,0,45-4.75l9.54-11.78a32,32,0,0,0-4.69-44.93ZM544,64.4V288c0,17.6,14.25,32.05,31.1,32.05L640,320V64.5ZM592,288a16,16,0,1,1,16-16A16,16,0,0,1,592,288Z"/><path class="cls-2" d="M480,64.2C439,23.27,415.4.08,357.4.08c-10.49,0-19.93-.61-30.2,8.57L217,99.6c-20.2,17.1-22.8,46.5-5.6,67.6a48,48,0,0,0,67.6,5.66l39.57-33.46,165.3,135.3a31.31,31.31,0,0,1,9.08,13l51-.64V64.4ZM0,319.9H64A31.94,31.94,0,0,0,96,288V64.3H0Zm48-63.8a16,16,0,1,1-16,16A16,16,0,0,1,48,256.1Z"/></svg>