<svg xmlns="http://www.w3.org/2000/svg" viewBox="0 0 1000 1000"><g id="Layer_87" data-name="Layer 87"><path d="M382.83,923.37,362,871.29,317.12,811l-.08-.13-43.12-75.12-42.47-15.57-25.84-80.41L209.78,605l-62-90.91H117.41l-4.61-33.8,5.41-12.17L72.44,383.49c-1.2-1.95-31.08-50.84-37.91-61.78-5-8-22.07-6-28.24-4.51l-3.73.87,12.36-66.43L68,255.94l37.82-40.61,22.58-1.41,25.88-24.59-41.66-58.9,98.07-23.08L220,88.72,224.45,91l-10.37,20.73L121,133.59,160.84,190,130.49,218.8l-22.4,1.4L70,261.12,19,257,8.84,311.64c7.41-1.16,23.77-2.42,29.93,7.42,6.95,11.13,37.66,61.37,38,61.88l.06.11,47,86.84L117.94,481l3.83,28.06h28.66L215,603.73l-4.27,35.53,24.76,77,41.89,15.36,44,76.57,45.09,60.6,18.53,46.33,20.56-16.94,7.32-38.06,27.35,4.56,22.58-2.82,48,11.29L573.13,876l19.76,14.49,26.76-33.45.18-.16L669,814.74l3.25,3.8-49,42L593.8,897.39,571.39,881l-61.33-2.78-.23-.06L462.47,867l-22.41,2.8L416.8,865.9l-6.74,35Z"/><polygon points="972.49 731.61 967.71 730.15 992.73 648.14 978.19 617.74 852.02 585.5 798.9 522.33 798.9 512.1 773.07 505.3 728.16 429.97 734.24 420.85 734.24 396.08 697.2 365.91 669.9 342.92 656.12 298.8 629.97 296.05 616.01 277.9 567.87 277.9 486.16 266.63 486.85 261.68 568.21 272.9 618.47 272.9 632.63 291.3 659.91 294.18 674.24 340.03 700.39 362.06 739.24 393.71 739.24 422.36 734.07 430.12 776.32 500.99 803.9 508.25 803.9 520.51 854.81 581.05 981.69 613.47 998.08 647.74 972.49 731.61"/><path d="M363.27,912.17l-26.83-8.95,3.78-17L361.41,888Zm-21-12.26L357.71,905l-1-12.42-12.6-1Z"/><path d="M269.35,339.79V336.2h13c1.94,0,3.59-.05,4.93-.17a16.24,16.24,0,0,0,4-.84,13.13,13.13,0,0,0,3.25-1.56,9.7,9.7,0,0,0,2.52-2.86,17.86,17.86,0,0,0,1.91-4.09,52.08,52.08,0,0,0,1.34-5.83,71,71,0,0,0,1-7.56q.28-3.87.51-9.92t.28-12.21q0-6.17.05-15V131.82q0-13.78-.16-22.07t-1-15.35a52.18,52.18,0,0,0-2-10.37,14.61,14.61,0,0,0-3.59-5.66A10.43,10.43,0,0,0,290,75.46a42.08,42.08,0,0,0-7.68-.56h-13V71.32H356.3V74.9h-3.13a58.07,58.07,0,0,0-6.17.28,14.79,14.79,0,0,0-4.76,1.4,11.9,11.9,0,0,0-3.69,2.69A14.78,14.78,0,0,0,336,84.09a35.67,35.67,0,0,0-1.74,7q-.56,3.76-1,10.14t-.56,13.34q-.11,6.95-.11,17.25v46.62A89.76,89.76,0,0,0,349,177.31q5.61-1.11,8.18-4.25l44.37-56,12.55-18.37q6.17-8.75,6.17-14.23,0-9.53-17.37-9.53h-2.69V71.32H482.7V74.9h-1.35q-12.09,0-26.72,7a98.09,98.09,0,0,0-27.06,19.45L406.5,122,363.92,175.3l.45,1.79a91.57,91.57,0,0,1,22.3,7.79,88.3,88.3,0,0,1,16.81,10.87,60.75,60.75,0,0,1,12.27,14.56,122.35,122.35,0,0,1,8.51,16,108.66,108.66,0,0,1,5.61,18.32q2.52,11.09,3.64,18.32t2.58,19q.78,6.16,1.23,9.69t1.29,8.85q.84,5.33,1.62,8.41t2.07,7.23a31.07,31.07,0,0,0,2.69,6.49c.94,1.57,2.06,3.24,3.36,5a15,15,0,0,0,4.32,4,23.23,23.23,0,0,0,5.43,2.3,23.74,23.74,0,0,0,6.67.9q9,0,17.93-7.17l4.93-4,1.79,2.69-4.48,3.59q-17.26,13.89-30.48,13.89a42.43,42.43,0,0,1-24.87-7.73,31.49,31.49,0,0,1-8.18-9.3,95.65,95.65,0,0,1-6-11.26,93.84,93.84,0,0,1-4.54-13.95q-2.24-8.74-3.36-14.74t-2.8-16.08q-1.9-11.76-3.3-18.93t-4.15-17.71a98.56,98.56,0,0,0-5.77-16.92,107.7,107.7,0,0,0-8.12-13.89,42.12,42.12,0,0,0-11.27-11.6,59.77,59.77,0,0,0-15-6.89,65,65,0,0,0-19.61-2.8h-4.93v94.12q0,11,.11,18.32c.08,4.9.26,9.58.56,14.07s.64,8.05,1,10.7a36.82,36.82,0,0,0,1.79,7.39,18.5,18.5,0,0,0,2.53,5,10.49,10.49,0,0,0,3.64,2.81,14.26,14.26,0,0,0,4.81,1.45,55.52,55.52,0,0,0,6.17.28h13v3.59Z"/><path d="M500.12,615.15l6.8-.45,1.36,21.3A88.93,88.93,0,0,0,515,665.24a62.74,62.74,0,0,0,14.39,21.25,60.59,60.59,0,0,0,20.45,12.69,70.8,70.8,0,0,0,25.1,4.36q25.5,0,41.08-15t15.59-39.84a49.73,49.73,0,0,0-1.76-13.2,61.31,61.31,0,0,0-4.42-11.62,51,51,0,0,0-7.31-10.48,126.32,126.32,0,0,0-9-9.29,112.87,112.87,0,0,0-10.88-8.67q-6.51-4.65-11.61-7.88T574,579.79q-6.69-4-11-6.63t-10.65-6.91Q546,562,541.82,558.66t-9.52-8.11a77.64,77.64,0,0,1-8.78-9.06,121.23,121.23,0,0,1-7.08-9.92,55.81,55.81,0,0,1-5.67-11.22,86.43,86.43,0,0,1-3.4-12.35A70.48,70.48,0,0,1,506,494.12q0-27.44,20.68-44.31t54.12-16.89a201.44,201.44,0,0,1,26,2q15.3,2,22.1,2a75.67,75.67,0,0,0,13.14-.91l4.08,78.43-6.8.45-.9-15.87a72.63,72.63,0,0,0-4.48-21.93,66.25,66.25,0,0,0-10.82-18.92,49.42,49.42,0,0,0-17.85-13.49,57.66,57.66,0,0,0-24.42-5q-23.23,0-35.87,12T532.3,486a43.69,43.69,0,0,0,3.57,17.39,65.39,65.39,0,0,0,8,14.17q4.47,5.84,13.6,12.86t15.13,10.88q6,3.86,17.68,10.88,8.83,5.22,14.56,8.84t13.82,9.46A126.07,126.07,0,0,1,632,581.26a141.56,141.56,0,0,1,11.05,12.07,67.9,67.9,0,0,1,9.18,14.23,89.17,89.17,0,0,1,5.61,16.2,78.32,78.32,0,0,1,2.27,19q0,30.48-23.24,49t-61.08,18.53q-11.57,0-31.84-3.17T517.34,704a47.54,47.54,0,0,0-13.14,1.81Z"/><path d="M670.83,915.54v-3.9a13.72,13.72,0,0,0,4-.67,28.23,28.23,0,0,0,5.84-2.86,32.65,32.65,0,0,0,8-7.66,74.07,74.07,0,0,0,8.39-13.63l18-36.5L804.67,644q6.81-15.69,7.3-21.9h8.27L923.91,886.82q2.31,5.85,3.53,8.7c.8,1.91,1.82,4,3,6.27a21.18,21.18,0,0,0,3.22,4.8,24.08,24.08,0,0,0,3.53,2.86,10.84,10.84,0,0,0,4.56,1.83,41.62,41.62,0,0,0,6,.36h2.92v3.9H871.34v-3.9h9.25a20.29,20.29,0,0,0,3.83-.36,21,21,0,0,0,4.26-1.4,8.8,8.8,0,0,0,3.9-3.41,10.52,10.52,0,0,0,1.52-5.78,23.29,23.29,0,0,0-1.83-8.51l-24.94-63.76h-87l-46.73.85-10.22,24L712.2,886.82a29.19,29.19,0,0,0-2,10.22,12.63,12.63,0,0,0,5.18,10.77q5.16,3.84,14.29,3.83h13.63v3.9Zm66.8-95.64,44.65,1.22h82.25l-53-135.78a71.53,71.53,0,0,1-3.89-23.85h-2.43Z"/></g></svg>