<svg id="Layer_1" data-name="Layer 1" xmlns="http://www.w3.org/2000/svg" viewBox="0 0 640 512"><defs><style>.cls-1,.cls-2{fill:#001e33;}.cls-2{isolation:isolate;opacity:0.4;}</style></defs><path class="cls-1" d="M604,127.1H420c-19.9,0-36,17-36,36.9V476a36,36,0,0,0,36,36H604a36,36,0,0,0,36-36V164C640,144.1,623.9,127.1,604,127.1ZM576,448H448V192H576Z"/><path class="cls-2" d="M448,192V448H576V192ZM128,64H448V96h64V48A48.06,48.06,0,0,0,464.12,0H111.9A48.07,48.07,0,0,0,64,48V288H16A15.93,15.93,0,0,0,0,304v16a64.18,64.18,0,0,0,63.88,64H352V288H128Z"/></svg>