<svg xmlns="http://www.w3.org/2000/svg" viewBox="0 0 1018.67 304.92"><defs><style>.cls-1{fill:#6dcff6;}.cls-2{fill:#fff;}</style></defs><g id="Layer_71" data-name="Layer 71"><path d="M467.53,35.39V131.5H448.72V69.16l-27.1,44.59-2.21.08-27-44.43v62.1H373.48V35.39H393l27.56,45.38L448,35.39Z"/><path d="M536.73,62.85h17.72V131.5H536.73v-8.1q-8,10-22.38,10-13.73,0-23.54-10.5T481,97.17q0-15.24,9.82-25.74t23.54-10.51q14.42,0,22.38,10Zm-32.67,48.26a18.27,18.27,0,0,0,13.59,5.42,18.51,18.51,0,0,0,13.66-5.42q5.43-5.42,5.42-13.94t-5.42-13.93a18.52,18.52,0,0,0-13.66-5.43,18.28,18.28,0,0,0-13.59,5.43q-5.35,5.42-5.36,13.93T504.06,111.11Z"/><path d="M586.3,82.34c0,1.84,1.21,3.32,3.64,4.47a48.73,48.73,0,0,0,8.86,3,93.63,93.63,0,0,1,10.43,3.29,20.32,20.32,0,0,1,8.86,6.66,18.45,18.45,0,0,1,3.64,11.67q0,10.58-7.9,16.27t-19.7,5.7q-21.15,0-28.84-16.34l15.38-8.65q3,8.92,13.46,8.93,9.47,0,9.47-5.91c0-1.83-1.21-3.31-3.64-4.46a52.71,52.71,0,0,0-8.85-3.09,92.18,92.18,0,0,1-10.44-3.43A21.37,21.37,0,0,1,571.82,94a17.12,17.12,0,0,1-3.64-11.19q0-10.17,7.48-16t18.61-5.84a31.08,31.08,0,0,1,15.24,3.78,27.6,27.6,0,0,1,10.84,10.78l-15.1,8.24a11.3,11.3,0,0,0-11-7,10,10,0,0,0-5.7,1.52A4.7,4.7,0,0,0,586.3,82.34Z"/><path d="M670.33,79.87H654.82v28.56q0,3.57,1.78,5.22a8.15,8.15,0,0,0,5.22,1.85,76.64,76.64,0,0,0,8.51-.06V131.5q-18.26,2.06-25.74-3.43t-7.48-19.64V79.87h-12v-17h12V49l17.71-5.36V62.85h15.51Z"/><path d="M695.74,104.45q3.56,12.92,19.36,12.91,10.15,0,15.37-6.87l14.28,8.24q-10.15,14.7-29.93,14.69-17,0-27.32-10.3T677.2,97.17q0-15.51,10.16-25.88t26.09-10.37q15.1,0,24.92,10.44t9.82,25.81a41.26,41.26,0,0,1-.69,7.28Zm-.28-13.73h35c-1-4.67-3.09-8.15-6.24-10.44a18,18,0,0,0-10.78-3.43,18.67,18.67,0,0,0-11.81,3.64A17.44,17.44,0,0,0,695.46,90.72Z"/><path d="M778.26,74.66a18.46,18.46,0,0,1,8.17-9.89,24.85,24.85,0,0,1,12.7-3.3V81.25a20.9,20.9,0,0,0-14.49,3.29q-6.39,4.26-6.38,14.14V131.5H760.54V62.85h17.72Z"/><path d="M810.24,67l-2.33-31.58h16.75L822.33,67Z"/><path d="M849.51,82.34c0,1.84,1.22,3.32,3.64,4.47a49,49,0,0,0,8.86,3,93,93,0,0,1,10.43,3.29,20.32,20.32,0,0,1,8.86,6.66,18.45,18.45,0,0,1,3.64,11.67q0,10.58-7.9,16.27t-19.7,5.7q-21.15,0-28.83-16.34l15.37-8.65q3,8.92,13.46,8.93,9.48,0,9.47-5.91c0-1.83-1.21-3.31-3.63-4.46a52.84,52.84,0,0,0-8.86-3.09,92.18,92.18,0,0,1-10.44-3.43A21.37,21.37,0,0,1,835,94a17.12,17.12,0,0,1-3.64-11.19q0-10.17,7.48-16t18.61-5.84a31.08,31.08,0,0,1,15.24,3.78,27.69,27.69,0,0,1,10.85,10.78l-15.11,8.24a11.3,11.3,0,0,0-11-7,10,10,0,0,0-5.7,1.52A4.7,4.7,0,0,0,849.51,82.34Z"/><path class="cls-1" d="M409.32,172.69A32,32,0,0,1,432.66,182a32.5,32.5,0,0,1,0,45.86,32,32,0,0,1-23.34,9.34H392.43v31.58H373.48V172.69Zm0,46.82a13.26,13.26,0,0,0,10-4.18,15.59,15.59,0,0,0,0-20.81,13.39,13.39,0,0,0-10-4.12H392.43v29.11Z"/><path class="cls-1" d="M469.87,212a18.48,18.48,0,0,1,8.17-9.88,24.88,24.88,0,0,1,12.7-3.3v19.77a20.87,20.87,0,0,0-14.49,3.3q-6.37,4.26-6.38,14.14v32.82H452.16V200.15h17.71Z"/><path class="cls-1" d="M556.92,260.22a36.64,36.64,0,1,1,10.57-25.74A35.21,35.21,0,0,1,556.92,260.22Zm-39.06-12.15a17.85,17.85,0,0,0,13.25,5.36,18.09,18.09,0,0,0,13.32-5.36,19.94,19.94,0,0,0,0-27.18,18.09,18.09,0,0,0-13.32-5.36,17.85,17.85,0,0,0-13.25,5.36,20.1,20.1,0,0,0,0,27.18Z"/><path class="cls-1" d="M632.58,200.15h17.3v65.36q0,15.93-10.51,24.3T614,298.19a42.89,42.89,0,0,1-19.57-4.26,29.76,29.76,0,0,1-13-12.49l15.1-8.65q5.22,9.6,18,9.61,8.37,0,13.18-4.39t4.81-12.5V258.1q-7.83,10.42-22,10.43a32.43,32.43,0,0,1-24.38-10.23,36.37,36.37,0,0,1,.07-49.77,32.37,32.37,0,0,1,24.31-10.3q14.13,0,22,10.44Zm-33,46.76a20.67,20.67,0,0,0,27.6,0,19.4,19.4,0,0,0,0-26.92,20.67,20.67,0,0,0-27.6,0,19.42,19.42,0,0,0,0,26.92Z"/><path class="cls-1" d="M683.65,212a18.48,18.48,0,0,1,8.17-9.88,24.88,24.88,0,0,1,12.7-3.3v19.77a20.83,20.83,0,0,0-14.48,3.3q-6.39,4.26-6.39,14.14v32.82H665.94V200.15h17.71Z"/><path class="cls-1" d="M764.39,200.15H782.1v68.66H764.39v-8.1q-8,10-22.38,10-13.74,0-23.55-10.51t-9.82-25.74q0-15.24,9.82-25.75T742,198.23q14.41,0,22.38,10Zm-32.68,48.27a18.31,18.31,0,0,0,13.59,5.42A18.53,18.53,0,0,0,759,248.42a20.61,20.61,0,0,0,0-27.88,18.53,18.53,0,0,0-13.66-5.42,18.31,18.31,0,0,0-13.59,5.42q-5.36,5.43-5.36,13.94T731.71,248.42Z"/><path class="cls-1" d="M874.09,198.23q11.82,0,18.88,7.69t7.07,20.6v42.29H882.33V227.75q0-6.18-3-9.61t-8.51-3.43q-6,0-9.41,4T858,230.22v38.59H840.32V227.75q0-6.18-3-9.61t-8.52-3.43a11.9,11.9,0,0,0-9.4,4q-3.51,4-3.5,11.53v38.59H798.16V200.15h17.72v7.28q6.18-9.19,19.08-9.2,12.63,0,18.67,9.89Q860.5,198.24,874.09,198.23Z"/><path class="cls-1" d="M931.49,219.65q0,2.74,3.63,4.46a48.23,48.23,0,0,0,8.86,3,91.18,91.18,0,0,1,10.44,3.3,20.29,20.29,0,0,1,8.85,6.66,18.38,18.38,0,0,1,3.64,11.67q0,10.58-7.89,16.27t-19.71,5.7q-21.15,0-28.83-16.34l15.38-8.65q3,8.92,13.45,8.92,9.48,0,9.48-5.9c0-1.83-1.22-3.32-3.64-4.46a51.11,51.11,0,0,0-8.86-3.09,91.46,91.46,0,0,1-10.43-3.44,21.31,21.31,0,0,1-8.86-6.52,17.09,17.09,0,0,1-3.64-11.19q0-10.16,7.48-16t18.61-5.84A31.08,31.08,0,0,1,954.69,202a27.63,27.63,0,0,1,10.85,10.78L950.43,221a11.3,11.3,0,0,0-11-7,10.12,10.12,0,0,0-5.7,1.51A4.71,4.71,0,0,0,931.49,219.65Z"/><rect width="300" height="300"/><path class="cls-2" d="M195.53,138.54v61q0,21.54-11.79,33.4t-34,11.86q-21.94,0-33.81-11.93t-11.86-33.47V108.51L78.17,98.62V200.19Q78.44,231,97.79,248.6t51.94,17.59l7-.28q30-2.18,47.5-20t17.65-46V128.49Z"/><path class="cls-1" d="M113.11,112.65l36.89,14,95.47-36.59L150,53.52h0L54.68,90.05a.07.07,0,0,0,0,.12l14.21,5.38v66.21h0l-18.39-6.93V109.41l-10.37-4A16.55,16.55,0,0,1,29.37,90.58,16.18,16.18,0,0,1,39.83,74.89l104.34-40a16.28,16.28,0,0,1,11.66,0l104.34,40a16.3,16.3,0,0,1,0,30.44l-104.34,40a16.28,16.28,0,0,1-11.66,0l-31.07-11.9Z"/></g></svg>