<svg id="Layer_1" data-name="Layer 1" xmlns="http://www.w3.org/2000/svg" viewBox="0 0 640 512"><defs><style>.cls-1{fill:#001e33;}</style></defs><path class="cls-1" d="M208,216a20,20,0,0,0-20,20c0,11,8.1,20,20,20s20-9,20-20C228,224.1,219,216,208,216ZM224.6,64H188.2A44.24,44.24,0,0,0,144,108.2a16,16,0,0,0,32,0A12.25,12.25,0,0,1,188.2,96h36.36a15.41,15.41,0,0,1,6.71,29.29L200.6,141.2c-5.3,1.9-8.6,8.2-8.6,14.2V176a16,16,0,1,0,32-.1V165.1l21.78-11.31C261.1,145.8,272,129.5,272,111.4A47.48,47.48,0,0,0,224.6,64ZM576,128H448v32H576a32,32,0,0,1,32,32V384a32,32,0,0,1-32,32H512v49.57L424.4,416H320a32,32,0,0,1-32-32V352H256v32a63.16,63.16,0,0,0,63.1,63.1L416,448l108.9,61.63A11.63,11.63,0,0,0,532,512a11.9,11.9,0,0,0,12-12V448h32c35.25,0,64-28.75,64-63.1V191.1C640,156.7,611.3,128,576,128ZM416,256V63.1C416,28.75,387.3,0,352,0H64C28.75,0,0,28.75,0,63.1v192C0,291.3,28.75,320,64,320H96v52a12,12,0,0,0,12,12,12.09,12.09,0,0,0,7.12-2.38L224,320l128-.08A64,64,0,0,0,416,256ZM215.6,288,128,337.6V288H64a32.07,32.07,0,0,1-32-32V64A32,32,0,0,1,64,32H352a32,32,0,0,1,32,32V256a32,32,0,0,1-32,32Z"/></svg>