<svg id="Layer_1" data-name="Layer 1" xmlns="http://www.w3.org/2000/svg" viewBox="0 0 448.22 424.64"><defs><style>.cls-1{fill:#001e33;}</style></defs><path class="cls-1" d="M139.47,80.75a13.27,13.27,0,1,1,23-13.27L169.08,79,289.93,9.19a13.18,13.18,0,0,1,11.46-.87l63.3,24.73c5.78,2.22,9.26,8.25,7.92,13.72L362.38,114a12,12,0,0,1-6.12,10.14L235.41,193.86l13.27,23,126.38-73a26.5,26.5,0,0,1,36.24,9.71l39.8,68.94a26.5,26.5,0,0,1-9.71,36.24L315,331.73l46.43,80.42a13.27,13.27,0,0,1-23,13.27L292,345,171.17,414.77a12,12,0,0,1-11.83.23L96,390.27c-5.38-1.58-8.87-7.62-7.91-13.72l10.23-67.18a13.24,13.24,0,0,1,6.48-9.49L225.7,230.1l-13.27-23-126.38,73a26.51,26.51,0,0,1-36.24-9.71L10,201.44a26.53,26.53,0,0,1,9.71-36.24l126.38-73Zm158.2-45.38L33,188.18l39.8,68.93L337.47,104.3l7.67-50.39ZM116,370.06l47.47,18.55L428.12,235.78l-39.8-68.93L123.63,319.67Z" transform="translate(-6.45 -7.4)"/></svg>