<svg class="sc-Symbol" viewBox="0 0 142 110" aria-hidden="true" focusable="false" data-jsinit="Symbol">
						
					
  <defs>
    <path id="cna" d="M.06.327h141.852v109.672229H.06z"></path>
  </defs>
  <g fill-rule="evenodd" fill="currentColor">
    <path d="M92.794 89.831h13.219V.327H92.794v89.504zm28.682-60.093c-2.485-.121-5.578 0-8.671.363v12.245c11.642 0 15.888 1.704 15.888 12.491v34.994h13.219V53.204c0-13.521-7.701-22.981-20.436-23.466zm-90.128.424c-14.069.728-20.315 10.066-20.315 24.923v29.96c0 8.732-1.759 12.493-10.854 12.675v12.121c1.092.183 2.849.183 3.76.121 14.128-.848 20.313-10.247 20.313-24.922V55.079c0-8.792 1.638-12.491 10.795-12.673V30.223c-1.032-.122-2.79-.122-3.699-.061zm40.567 0c-14.008.728-20.314 10.126-20.314 24.923v34.746H64.82V55.079c0-8.732 1.759-12.491 10.855-12.673V30.223c-1.093-.122-2.85-.122-3.76-.061z"></path>
    <path d="M92.614 89.831h13.219V.327H92.614v89.504zm28.682-60.093c-2.485-.121-5.578 0-8.67.363v12.245c11.642 0 15.887 1.704 15.887 12.491v34.994h13.219V53.204c0-13.521-7.7-22.981-20.436-23.466zm-90.128.424C17.1 30.89 10.854 40.228 10.854 55.085v29.96c0 8.732-1.759 12.493-10.854 12.675v12.121c1.091.183 2.849.183 3.759.121 14.129-.848 20.314-10.247 20.314-24.922V55.079c0-8.792 1.637-12.491 10.794-12.673V30.223c-1.032-.122-2.789-.122-3.699-.061zm40.568 0c-14.008.728-20.315 10.126-20.315 24.923v34.746h13.22V55.079c0-8.732 1.758-12.491 10.855-12.673V30.223c-1.093-.122-2.85-.122-3.76-.061z"></path>
  </g>
</svg>