<svg xmlns="http://www.w3.org/2000/svg" viewBox="0 0 1404.48 438.23"><defs><style>.cls-1{fill:#00a664;}</style></defs><g id="Layer_62" data-name="Layer 62"><path d="M420.38,292q0-63.87,30.26-102.72t79.25-38.86q48.74,0,77.2,33.34V39.15h47.45v394h-43.6l-2.31-29.75q-28.47,34.88-79.25,34.88-48.22,0-78.61-39.5t-30.39-103.1Zm47.45,5.38q0,47.19,19.49,73.87T541.18,398q45.14,0,65.91-40.52V230q-21.29-39.24-65.4-39.24-34.87,0-54.37,26.93T467.83,297.42Z"/><path d="M862.29,198.17a141.89,141.89,0,0,0-23.34-1.8q-46.68,0-63.35,39.75v197H728.15V155.59h46.17l.76,32.06q23.34-37.18,66.18-37.19,13.85,0,21,3.59Z"/><path d="M1077.21,405.66q-27.69,32.57-81.3,32.57-44.37,0-67.58-25.78t-23.47-76.3V155.59h47.45V334.87q0,63.09,51.3,63.09,54.36,0,72.32-40.52V155.59h47.45V433.1h-45.14Z"/><path d="M1357,359.49q0-19.23-14.49-29.88T1292,311.27q-36-7.69-57.19-18.46t-31.29-25.65q-10.14-14.88-10.13-35.4,0-34.09,28.85-57.7t73.74-23.6q47.19,0,76.56,24.37t29.36,62.32h-47.7q0-19.49-16.54-33.6T1296,189.45q-25.9,0-40.52,11.28t-14.62,29.5q0,17.18,13.59,25.9t49.12,16.67q35.51,7.95,57.57,19t32.71,26.54q10.64,15.53,10.64,37.84,0,37.18-29.75,59.63t-77.2,22.44q-33.35,0-59-11.8t-40.14-33q-14.49-21.15-14.49-45.78h47.45q1.28,23.85,19.1,37.83t47.07,14q26.92,0,43.21-10.9T1357,359.49Z"/><path d="M312.33,198V312.6q0,40.5-22.16,62.78t-63.93,22.3q-41.25,0-63.54-22.42t-22.29-62.92V141.57L91.74,123V313.91q.49,57.91,36.88,91T226.24,438l13.07-.52q56.37-4.1,89.29-37.67t33.18-86.37V179.13Z"/><path class="cls-1" d="M157.41,148.18l69.35,26.42L406.2,105.82,226.76,37h0L47.59,105.71a.11.11,0,0,0,0,.21L74.3,116.05V240.49h0l-34.58-13V142.1l-19.48-7.47A31.11,31.11,0,0,1,0,106.7,30.45,30.45,0,0,1,19.67,77.21L215.79,2a30.59,30.59,0,0,1,21.93,0L433.84,77.21a30.64,30.64,0,0,1,0,57.22L237.72,209.6a30.59,30.59,0,0,1-21.93,0l-58.38-22.36Z"/></g></svg>