<?xml version="1.0" encoding="utf-8"?>
<!-- Generator: Adobe Illustrator 25.4.1, SVG Export Plug-In . SVG Version: 6.00 Build 0)  -->
<svg version="1.1" id="_x2014_ÎÓÈ_x5F_1" xmlns="http://www.w3.org/2000/svg" xmlns:xlink="http://www.w3.org/1999/xlink"
	 x="0px" y="0px" viewBox="0 0 1000 1000" style="enable-background:new 0 0 1000 1000;" xml:space="preserve">
<style type="text/css">
	.st0{fill:#F1FBFF;stroke:#00A9DD;stroke-miterlimit:10;}
</style>
<g>
	<path class="st0" d="M564.05,658.42v5.53H435.95v-5.53H149.88v15.79c0,0,8.56,11.73,25.29,12.65c12.05,0,645.11,0,648.86,0
		c17.26-1.19,26.08-12.65,26.08-12.65v-15.79H564.05z"/>
	<path class="st0" d="M748.13,313.14H252.64c-9.53,0-18.03,7.59-18.03,17.05v319.25c0,0.45,0.04,0.94,0.11,1.44h530.67V329.36
		C765.39,321.1,758.59,313.14,748.13,313.14z M500,317.5c3.31,0,6,2.69,6,6s-2.69,6-6,6c-3.31,0-6-2.69-6-6S496.69,317.5,500,317.5z
		 M741.58,627.53c0,0.52-0.15,1.66-1.24,1.66H259.66c-1.09,0-1.24-0.42-1.24-0.94V335.36c0-0.52,0.89-0.94,1.98-0.94h479.19
		c1.09,0,1.98,1.14,1.98,1.65V627.53z"/>
</g>
</svg>
