<svg id="Layer_1" data-name="Layer 1" xmlns="http://www.w3.org/2000/svg" viewBox="0 0 1738.77 541.38"><defs><style>.cls-1{fill:#6dcff6;}.cls-2{fill:#fff;}</style></defs><g id="Layer_61" data-name="Layer 61"><path class="cls-1" d="M1072.33,334.37H913.91l-35.57,98.94H826.92L971.31,55.2h43.63l144.65,378.11h-51.16ZM929,293.6h128.55L993.12,116.74Z" transform="translate(0.02 0.03)"/><path class="cls-1" d="M1440.32,295.94q0,64.14-29.35,103.35t-79.46,39.22q-51.16,0-80.51-32.46v135.3h-48v-389h43.88l2.34,31.17q29.34-36.36,81.55-36.36,50.64,0,80.11,38.17t29.48,106.22Zm-48-5.46q0-47.52-20.25-75.05t-55.58-27.53q-43.62,0-65.44,38.7V360.86q21.56,38.43,66,38.43,34.54,0,54.93-27.39t20.29-81.42Z" transform="translate(0.02 0.03)"/><path class="cls-1" d="M1738.71,295.94q0,64.14-29.35,103.35t-79.46,39.22q-51.17,0-80.51-32.46v135.3h-48v-389h43.89l2.33,31.17q29.34-36.36,81.55-36.36,50.64,0,80.11,38.17t29.48,106.22Zm-48-5.46q0-47.52-20.26-75.05t-55.58-27.53q-43.62,0-65.44,38.7V360.86q21.55,38.43,66,38.43,34.54,0,54.93-27.39t20.31-81.42Z" transform="translate(0.02 0.03)"/><path class="cls-2" d="M479.68,152.72l1.56,35.2q32.09-40.38,83.84-40.38,88.77,0,89.55,100.16v185H606.75V247.44q-.25-30.28-13.85-44.77t-42.31-14.5q-23.3,0-40.89,12.43a84.46,84.46,0,0,0-27.43,32.6V432.73H434.4v-280Z" transform="translate(0.02 0.03)"/><path class="cls-2" d="M727.09,78.45q0-11.65,7.11-19.67t21.09-8q14,0,21.22,8a28.29,28.29,0,0,1,7.25,19.67q0,11.64-7.25,19.41t-21.22,7.76q-14,0-21.09-7.76T727.09,78.45Zm51.75,354.28H731v-280h47.87Z" transform="translate(0.02 0.03)"/><path class="cls-2" d="M312.29,197.94V312.52q0,40.5-22.16,62.79T226.21,397.6q-41.25,0-63.55-22.42t-22.28-62.91V141.49L91.7,122.9V313.83q.49,57.93,36.89,91t97.62,33.06l13.06-.51q56.37-4.11,89.29-37.67t33.18-86.38V179.05Z" transform="translate(0.02 0.03)"/><path class="cls-1" d="M157.4,148.18l69.35,26.42L406.2,105.83,226.76,37h0L47.59,105.7a.11.11,0,0,0-.07.14.12.12,0,0,0,.07.07L74.3,116V240.48h0l-34.57-13V142.09l-19.48-7.47A31.15,31.15,0,0,1,0,106.68,30.45,30.45,0,0,1,19.67,77.19L215.8,2a30.59,30.59,0,0,1,21.93,0L433.84,77.2a30.64,30.64,0,0,1,0,57.22L237.71,209.6a30.59,30.59,0,0,1-21.93,0L157.4,187.23Z" transform="translate(0.02 0.03)"/></g></svg>