<svg id="Layer_1" data-name="Layer 1" xmlns="http://www.w3.org/2000/svg" viewBox="0 0 448 512"><defs><style>.cls-1{fill:#001e33;}</style></defs><path class="cls-1" d="M223.7,96h.64a95.72,95.72,0,0,1,71,159.93h0L304,256a47.68,47.68,0,0,0,40.52-22.6C349,220.4,352,206.6,352,192a128,128,0,0,0-256,0c0,40.38,19.12,76,48.37,99.49A24.17,24.17,0,0,1,144,288a63.22,63.22,0,0,1,8.9-32A95.55,95.55,0,0,1,223.7,96ZM48,224a15.93,15.93,0,0,0,16-16V192c0-88.25,71.75-160,160-160s160,71.75,160,160v16a80.11,80.11,0,0,1-80,80H272a32.07,32.07,0,0,0-32-32H208a32,32,0,0,0,0,64h96A112.12,112.12,0,0,0,416,208V192C416,86.1,329.87,0,224,0S32,86.13,32,192v16A15.94,15.94,0,0,0,48,224ZM314.7,352H133.3A133.33,133.33,0,0,0,0,485.3,26.65,26.65,0,0,0,26.66,512H421.3A26.63,26.63,0,0,0,448,485.3,133.33,133.33,0,0,0,314.7,352ZM32.14,480a101.46,101.46,0,0,1,101.2-96h181.3a101.46,101.46,0,0,1,101.2,96Z"/></svg>