<svg xmlns="http://www.w3.org/2000/svg" width="512.033" height="512.066" viewBox="0 0 512.033 512.066">
  <g id="Group_372" data-name="Group 372" transform="translate(4720 4558)">
    <path id="Path_2956" data-name="Path 2956" d="M512,256a88,88,0,0,0-57.1-82.4A88,88,0,0,0,338.4,57.1a88,88,0,0,0-164.8,0A88,88,0,0,0,57.1,173.6a88,88,0,0,0,0,164.8A88,88,0,0,0,173.6,454.9a88,88,0,0,0,164.8,0A88,88,0,0,0,454.9,338.4,88,88,0,0,0,512,256Z" transform="translate(-4719.967 -4557.967)" fill="#1da1f2" style="isolation: isolate"/>
    <path id="Path_2957" data-name="Path 2957" d="M367.2,211.75l-131,130a11,11,0,0,1-15.55-.06l-75.72-76.33a11,11,0,0,1,.056-15.556l0,0L171,224a11,11,0,0,1,15.556.056l0,0,42.15,42.49,97.2-96.42a11,11,0,0,1,15.55.06l25.82,26a11,11,0,0,1-.056,15.556l0,0Z" transform="translate(-4719.736 -4556.941)" fill="#fff"/>
  </g>
</svg>
